<svg xml:space="preserve" viewBox="0 0 850.39 368.5" height="368.5px" width="850.39px" y="0px" x="0px" xmlns:xlink="http://www.w3.org/1999/xlink" xmlns="http://www.w3.org/2000/svg" id="图层_1" version="1.1">
<g>
	<g>
		<path d="M34.375,341.95c-0.255,0.493-0.647,0.827-1.175,1
			c-2.575,0.825-5.117,1.684-7.625,2.575c-0.517,0.186-1.025,0.16-1.525-0.075c-0.498-0.235-0.84-0.61-1.025-1.125
			c-0.187-0.519-0.162-1.026,0.075-1.525c0.234-0.497,0.609-0.839,1.125-1.024c2.558-0.909,5.149-1.784,7.775-2.625
			c0.515-0.17,1.015-0.128,1.5,0.125c0.494,0.248,0.828,0.631,1,1.149C34.669,340.949,34.628,341.457,34.375,341.95z M64.475,329.8
			c0.482,0.271,0.799,0.671,0.95,1.2c0.152,0.531,0.094,1.04-0.175,1.525c-0.27,0.481-0.67,0.798-1.2,0.949
			c-6.908,1.959-13.767,4.034-20.575,6.226c-0.524,0.169-1.032,0.128-1.525-0.125c-0.495-0.248-0.828-0.632-1-1.15
			c-0.17-0.524-0.128-1.032,0.125-1.524c0.247-0.494,0.631-0.828,1.15-1c6.858-2.209,13.767-4.301,20.725-6.275
			C63.481,329.473,63.989,329.531,64.475,329.8z M82.55,289.9c0.556-0.004,1.031,0.188,1.425,0.574l3.7,3.65
			c0.387,0.395,0.579,0.869,0.575,1.425c0.003,0.556-0.188,1.031-0.575,1.425c-0.394,0.387-0.869,0.579-1.425,0.575
			c-0.556,0.004-1.031-0.188-1.425-0.575l-3.7-3.649c-0.387-0.395-0.579-0.869-0.575-1.425c-0.003-0.557,0.188-1.031,0.575-1.426
			C81.519,290.088,81.994,289.896,82.55,289.9z M73.025,289.1c0.552-0.005,1.027,0.188,1.425,0.575c0.394,0.385,0.594,0.851,0.6,1.4
			c0.005,0.55-0.187,1.024-0.575,1.425l-3.75,3.75c-0.384,0.393-0.851,0.593-1.4,0.6c-0.552,0.006-1.027-0.186-1.425-0.574
			c-0.395-0.385-0.594-0.852-0.6-1.4c-0.005-0.551,0.187-1.025,0.575-1.425l3.75-3.75C72.009,289.307,72.476,289.107,73.025,289.1z
			 M80.4,280.9l2.85-2.851c0.383-0.392,0.85-0.593,1.4-0.6c0.551-0.015,1.026,0.169,1.425,0.55c0.402,0.383,0.61,0.85,0.625,1.4
			c0.014,0.557-0.17,1.041-0.55,1.449L83.3,283.7c-0.383,0.392-0.85,0.593-1.4,0.6c-0.551,0.015-1.026-0.169-1.425-0.55
			c-0.402-0.383-0.611-0.85-0.625-1.4C79.836,281.793,80.02,281.309,80.4,280.9z M68.825,276.1c0.556,0.006,1.031,0.206,1.425,0.601
			l2.9,2.95c0.379,0.398,0.563,0.873,0.55,1.425c-0.006,0.549-0.206,1.016-0.6,1.399c-0.399,0.389-0.874,0.58-1.425,0.575
			c-0.556-0.006-1.031-0.206-1.425-0.6l-2.9-2.95c-0.379-0.398-0.563-0.873-0.55-1.425c0.006-0.55,0.206-1.017,0.6-1.4
			C67.798,276.287,68.273,276.095,68.825,276.1z M325.425,344.575c0.538,0.075,0.972,0.333,1.3,0.774
			c0.338,0.439,0.471,0.931,0.4,1.476c-0.068,0.546-0.318,0.987-0.75,1.325l-8.9,6.75c-0.448,0.328-0.948,0.453-1.5,0.375
			c-0.538-0.076-0.971-0.334-1.3-0.775c-0.338-0.439-0.471-0.931-0.4-1.475c0.068-0.546,0.318-0.988,0.75-1.325l8.9-6.75
			C324.373,344.621,324.873,344.496,325.425,344.575z M324.075,337.15c0.498,0.244,0.839,0.627,1.025,1.149
			c0.178,0.52,0.145,1.028-0.1,1.525c-0.245,0.499-0.628,0.841-1.15,1.024c-0.518,0.179-1.026,0.146-1.525-0.1l-7.65-3.7
			c-0.498-0.245-0.839-0.628-1.025-1.149c-0.178-0.52-0.145-1.028,0.1-1.525c0.245-0.5,0.628-0.842,1.15-1.025
			c0.518-0.178,1.026-0.145,1.525,0.101L324.075,337.15z M330.975,347.125c0.232-0.504,0.607-0.854,1.125-1.05
			c0.514-0.196,1.022-0.179,1.525,0.05c0.504,0.232,0.854,0.607,1.05,1.125l2.8,7.35c0.195,0.516,0.179,1.023-0.05,1.525
			c-0.232,0.504-0.607,0.854-1.125,1.05c-0.514,0.196-1.022,0.179-1.525-0.05c-0.504-0.232-0.854-0.607-1.05-1.125l-2.8-7.35
			C330.729,348.135,330.747,347.627,330.975,347.125z M343.325,335.625c0.502-0.229,1.011-0.245,1.525-0.05
			c0.517,0.195,0.892,0.545,1.125,1.05c0.229,0.502,0.245,1.01,0.05,1.525c-0.196,0.517-0.546,0.892-1.05,1.125l-7.15,3.35
			c-0.503,0.229-1.011,0.245-1.525,0.05c-0.517-0.195-0.892-0.545-1.125-1.05c-0.229-0.502-0.245-1.01-0.05-1.525
			c0.196-0.517,0.546-0.892,1.05-1.125L343.325,335.625z M192.525,330.975c0.523,0.162,0.916,0.486,1.175,0.976
			c0.269,0.487,0.327,0.996,0.175,1.524c-0.163,0.523-0.488,0.916-0.975,1.176l-5.9,3.199c-0.49,0.27-0.998,0.328-1.525,0.176
			c-0.523-0.162-0.915-0.486-1.175-0.976c-0.269-0.487-0.328-0.996-0.175-1.524c0.163-0.523,0.488-0.916,0.975-1.176l5.9-3.199
			C191.49,330.881,191.998,330.822,192.525,330.975z M199.1,332.375c0.27-0.482,0.67-0.799,1.2-0.95
			c0.531-0.151,1.039-0.093,1.525,0.175l5.15,2.9c0.481,0.271,0.798,0.67,0.95,1.2c0.152,0.531,0.094,1.04-0.175,1.524
			c-0.271,0.482-0.67,0.799-1.2,0.95c-0.53,0.152-1.039,0.094-1.525-0.175l-5.15-2.9c-0.481-0.271-0.798-0.67-0.95-1.199
			C198.772,333.369,198.831,332.86,199.1,332.375z M285.525,291.275c0.43,0.354,0.671,0.805,0.725,1.35
			c0.043,0.546-0.115,1.029-0.475,1.45c-0.353,0.429-0.803,0.671-1.35,0.725c-74.005,6.151-141.772,17.443-203.3,33.875
			c-0.536,0.144-1.044,0.077-1.525-0.2c-0.476-0.272-0.785-0.673-0.925-1.199c-0.144-0.535-0.077-1.044,0.2-1.525
			c0.273-0.477,0.674-0.784,1.2-0.925c61.739-16.501,129.739-27.843,204-34.025C284.62,290.757,285.103,290.916,285.525,291.275z
			 M205.225,320.35c0.545,0.055,0.996,0.296,1.35,0.726c0.36,0.421,0.518,0.903,0.475,1.45c-0.047,0.545-0.28,0.995-0.7,1.35
			l-3.85,3.35c-0.431,0.36-0.922,0.52-1.475,0.476c-0.545-0.054-0.996-0.296-1.35-0.726c-0.36-0.42-0.518-0.903-0.475-1.449
			c0.047-0.546,0.28-0.996,0.7-1.351l3.85-3.35C204.181,320.465,204.672,320.307,205.225,320.35z M195.1,322.275
			c0.366,0.417,0.533,0.9,0.5,1.449c-0.035,0.551-0.26,1.009-0.675,1.375c-0.416,0.367-0.899,0.534-1.45,0.5
			c-0.549-0.035-1.008-0.26-1.375-0.675l-3.7-4.25c-0.366-0.417-0.533-0.9-0.5-1.45c0.035-0.55,0.26-1.008,0.675-1.375
			c0.416-0.367,0.899-0.533,1.45-0.5c0.549,0.036,1.008,0.262,1.375,0.676L195.1,322.275z M154.2,266
			c-2.328,0-4.345,0.824-6.05,2.475h0.025c-1.676,1.669-2.518,3.66-2.525,5.976c0.003,2.376,0.845,4.401,2.525,6.075h-0.025
			c1.706,1.65,3.722,2.475,6.05,2.475c2.354,0,4.372-0.824,6.05-2.475h-0.025c1.68-1.674,2.522-3.699,2.525-6.075
			c-0.007-2.315-0.849-4.307-2.525-5.976h0.025C158.572,266.824,156.555,266,154.2,266z M141.65,274.45
			c-0.007-3.419,1.218-6.36,3.675-8.825h0.025c2.494-2.416,5.444-3.625,8.85-3.625c3.445,0,6.395,1.209,8.85,3.625h0.025
			c2.457,2.465,3.682,5.406,3.675,8.825c0.003,3.489-1.222,6.465-3.675,8.925h-0.025c-2.455,2.416-5.405,3.625-8.85,3.625
			c-3.406,0-6.356-1.209-8.85-3.625h-0.025C142.872,280.915,141.647,277.939,141.65,274.45z M131.675,219.425
			c0.387,0.394,0.579,0.869,0.575,1.425c0.003,0.557-0.188,1.031-0.575,1.426c-0.394,0.387-0.869,0.578-1.425,0.574h-10.3V233.2
			c0.003,0.556-0.188,1.03-0.575,1.425c-0.394,0.387-0.869,0.578-1.425,0.575c-0.556,0.003-1.031-0.188-1.425-0.575
			c-0.387-0.395-0.579-0.869-0.575-1.425V222.85H105.6c-0.556,0.004-1.031-0.188-1.425-0.574c-0.387-0.395-0.579-0.869-0.575-1.426
			c-0.004-0.556,0.188-1.031,0.575-1.425c0.394-0.387,0.869-0.579,1.425-0.575h10.35V208.45c-0.004-0.556,0.188-1.031,0.575-1.425
			c0.394-0.387,0.869-0.579,1.425-0.575c0.556-0.004,1.031,0.188,1.425,0.575c0.387,0.394,0.579,0.869,0.575,1.425v10.399h10.3
			C130.806,218.846,131.281,219.038,131.675,219.425z M182.2,158.85c-0.004-0.556,0.188-1.031,0.575-1.425
			c0.394-0.387,0.869-0.579,1.425-0.575c0.556-0.004,1.031,0.188,1.425,0.575c0.387,0.394,0.579,0.869,0.575,1.425v7.9h7.9
			c0.556-0.004,1.031,0.188,1.425,0.575c0.387,0.394,0.579,0.869,0.575,1.425c0.003,0.556-0.188,1.031-0.575,1.425
			c-0.394,0.387-0.869,0.579-1.425,0.575h-7.9v7.9c0.003,0.556-0.188,1.031-0.575,1.425c-0.394,0.387-0.869,0.578-1.425,0.575
			c-0.556,0.003-1.031-0.188-1.425-0.575c-0.387-0.395-0.579-0.869-0.575-1.425v-7.9h-7.85c-0.556,0.003-1.031-0.188-1.425-0.575
			c-0.387-0.394-0.579-0.869-0.575-1.425c-0.004-0.556,0.188-1.031,0.575-1.425c0.394-0.387,0.869-0.579,1.425-0.575h7.85V158.85z
			 M330.05,326.15c0.556-0.004,1.031,0.188,1.425,0.574c0.387,0.395,0.579,0.869,0.575,1.426v5.55
			c0.004,0.556-0.188,1.03-0.575,1.425c-0.394,0.387-0.869,0.578-1.425,0.575c-0.556,0.003-1.031-0.188-1.425-0.575
			c-0.387-0.395-0.579-0.869-0.575-1.425v-5.55c-0.003-0.557,0.188-1.031,0.575-1.426
			C329.019,326.338,329.494,326.146,330.05,326.15z M319.575,291.7c-0.416-0.368-0.641-0.826-0.675-1.375
			c-0.033-0.552,0.133-1.034,0.5-1.45c0.368-0.415,0.826-0.641,1.375-0.675c16.758-1.001,33.833-1.751,51.225-2.25
			c0.549-0.015,1.024,0.169,1.425,0.55c0.402,0.382,0.61,0.848,0.625,1.4c0.015,0.549-0.168,1.023-0.55,1.425
			c-0.382,0.401-0.849,0.609-1.4,0.625c-17.341,0.5-34.366,1.25-51.075,2.25C320.474,292.232,319.99,292.066,319.575,291.7z
			 M218.6,56.3c0.794-0.216,1.553-0.116,2.275,0.3c0.724,0.405,1.198,1.005,1.425,1.8l0.45,1.8c0.215,0.793,0.115,1.551-0.3,2.275
			c-0.407,0.724-1.007,1.199-1.8,1.425c-0.794,0.216-1.553,0.116-2.275-0.3c-0.724-0.405-1.198-1.005-1.425-1.8L216.5,60
			c-0.215-0.793-0.115-1.551,0.3-2.275C217.207,57,217.807,56.525,218.6,56.3z M210.825,27.2c3.042-0.804,5.909-0.42,8.6,1.15
			c0.043,0.023,0.085,0.048,0.125,0.075c2.797,1.546,4.598,3.846,5.4,6.9V35.3c0.849,3.088,0.441,6.021-1.225,8.8
			c-0.023,0.042-0.049,0.084-0.075,0.125c-0.955,1.693-2.222,3.01-3.8,3.95l0.025-0.025c-0.1,0.063-0.2,0.121-0.3,0.175l0.825,3.15
			c0.207,0.801,0.098,1.559-0.325,2.275c-0.419,0.719-1.027,1.186-1.825,1.4c-0.791,0.207-1.541,0.099-2.25-0.325
			c-0.719-0.412-1.186-1.012-1.4-1.8l-1.5-5.7c-0.144-0.522-0.144-1.048,0-1.575c0.152-0.523,0.427-0.973,0.825-1.35
			c0.393-0.384,0.852-0.642,1.375-0.775c0.516-0.121,0.991-0.313,1.425-0.575l0.025-0.025c0.716-0.437,1.291-1.044,1.725-1.825
			c0.024-0.038,0.049-0.079,0.075-0.125c0.805-1.318,1.005-2.709,0.6-4.175v-0.025c-0.385-1.433-1.243-2.507-2.575-3.225
			c-0.039-0.025-0.081-0.05-0.125-0.075c-1.273-0.768-2.631-0.959-4.075-0.575c-1.441,0.384-2.566,1.218-3.375,2.5
			c-0.665,1.275-0.832,2.642-0.5,4.1c0.177,0.486,0.311,0.953,0.4,1.4c0.161,0.809,0.011,1.559-0.45,2.25
			c-0.459,0.697-1.092,1.13-1.9,1.3c-0.809,0.162-1.559,0.012-2.25-0.45c-0.696-0.458-1.129-1.091-1.3-1.9
			c-0.04-0.199-0.098-0.407-0.175-0.625c-0.028-0.092-0.053-0.184-0.075-0.275c-0.804-3.068-0.487-5.935,0.95-8.6
			c0.024-0.038,0.049-0.08,0.075-0.125C205.429,29.795,207.779,28.003,210.825,27.2z M243.25,14.95h-0.025
			c11.625,3.11,18.484,8.919,20.575,17.425c2.383,8.38-0.642,16.821-9.075,25.325c-0.019,0.014-0.035,0.031-0.05,0.05
			c-0.53,0.513-1.071,1.029-1.625,1.55l3.5,12.85c0.198,0.74,0.123,1.457-0.225,2.15c-0.342,0.686-0.867,1.169-1.575,1.45
			c-0.716,0.282-1.433,0.29-2.15,0.025l-15.725-5.8c-6.495,2.543-10.97,4.152-13.425,4.825h-0.025
			c-13.099,3.484-25.049,3.768-35.85,0.85h-0.025c-11.439-3.153-18.206-8.944-20.3-17.375c-2.418-8.415,0.531-16.857,8.85-25.325
			l0.025-0.025c7.898-7.933,18.382-13.641,31.45-17.125C220.722,12.276,232.613,11.993,243.25,14.95z M241.675,20.75h-0.025
			c-9.697-2.643-20.538-2.359-32.525,0.85c-11.918,3.179-21.493,8.362-28.725,15.55l-0.025,0.025
			c-6.464,6.591-8.906,13.107-7.325,19.55c1.838,6.302,7.205,10.677,16.1,13.125c9.859,2.613,20.767,2.33,32.725-0.85h-0.025
			c2.479-0.69,7.112-2.374,13.9-5.05c0.717-0.282,1.434-0.29,2.15-0.025l11.3,4.175l-2.45-9c-0.152-0.56-0.144-1.118,0.025-1.675
			c0.167-0.543,0.467-1.001,0.9-1.375c0.979-0.85,1.913-1.7,2.8-2.55c0.016-0.017,0.033-0.034,0.05-0.05
			c6.531-6.614,9.022-13.123,7.475-19.525C256.159,27.564,250.718,23.173,241.675,20.75z M654.025,337.25
			c0.47-0.293,0.97-0.376,1.5-0.25c0.532,0.139,0.94,0.446,1.225,0.925c0.293,0.47,0.376,0.97,0.25,1.5
			c-0.139,0.532-0.447,0.94-0.925,1.226l-5.351,3.199c-0.471,0.293-0.971,0.376-1.5,0.25c-0.531-0.138-0.939-0.446-1.225-0.925
			c-0.293-0.47-0.377-0.97-0.25-1.5c0.139-0.531,0.447-0.94,0.925-1.225L654.025,337.25z M670.2,327.775
			c0.315,0.448,0.424,0.939,0.325,1.475c-0.107,0.546-0.391,0.979-0.851,1.3l-4.2,2.95c-0.449,0.314-0.94,0.424-1.475,0.325
			c-0.547-0.106-0.979-0.39-1.3-0.851c-0.315-0.448-0.424-0.939-0.325-1.475c0.106-0.546,0.39-0.979,0.85-1.3l4.2-2.95
			c0.449-0.314,0.941-0.424,1.476-0.325C669.446,327.031,669.88,327.314,670.2,327.775z M664.175,337.45
			c0.546,0.054,0.996,0.296,1.351,0.725l3.449,4.2c0.359,0.422,0.519,0.905,0.476,1.45c-0.055,0.546-0.296,0.997-0.726,1.35
			c-0.421,0.36-0.904,0.519-1.449,0.476c-0.546-0.055-0.996-0.297-1.351-0.726l-3.45-4.2c-0.359-0.422-0.518-0.904-0.475-1.449
			c0.055-0.547,0.296-0.997,0.725-1.351C663.146,337.564,663.63,337.406,664.175,337.45z M453.525,345.775
			c0.977-0.97,1.468-2.128,1.475-3.476c0.002-1.371-0.482-2.529-1.45-3.475l-0.024-0.025c-0.945-0.968-2.104-1.451-3.476-1.45
			c-1.331,0.008-2.499,0.499-3.5,1.476h0.025c-0.952,0.944-1.427,2.103-1.425,3.475c-0.002,1.334,0.457,2.483,1.375,3.45
			c0.017,0.017,0.033,0.033,0.05,0.05c0.997,0.927,2.156,1.394,3.475,1.4C451.422,347.201,452.581,346.727,453.525,345.775z
			 M459,342.3c0.007,2.452-0.868,4.562-2.625,6.325c-1.723,1.715-3.831,2.574-6.325,2.575c-2.392,0.007-4.483-0.843-6.274-2.55
			c-0.016-0.018-0.032-0.035-0.051-0.051c-1.715-1.757-2.573-3.857-2.574-6.3c0.001-2.494,0.859-4.603,2.574-6.325h0.025
			c1.799-1.756,3.898-2.631,6.3-2.625c2.483,0.002,4.584,0.877,6.3,2.625l0.025,0.025C458.123,337.717,458.998,339.816,459,342.3z
			 M578.9,351.6c-0.004-0.556,0.188-1.031,0.574-1.425l3.801-3.75c0.394-0.387,0.869-0.579,1.425-0.575
			c0.556-0.004,1.03,0.188,1.425,0.575c0.387,0.394,0.578,0.869,0.575,1.425c0.003,0.557-0.188,1.031-0.575,1.426l-3.8,3.75
			c-0.395,0.387-0.869,0.578-1.425,0.574c-0.557,0.004-1.031-0.188-1.426-0.574C579.088,352.631,578.896,352.156,578.9,351.6z
			 M584.8,336.4c0.379,0.398,0.563,0.873,0.55,1.425c-0.006,0.549-0.205,1.016-0.6,1.399c-0.398,0.389-0.873,0.58-1.425,0.575
			c-0.557-0.006-1.031-0.206-1.425-0.6l-2.9-2.95c-0.379-0.398-0.563-0.873-0.55-1.425c0.005-0.55,0.206-1.017,0.6-1.4
			c0.399-0.388,0.874-0.58,1.425-0.575c0.557,0.006,1.031,0.206,1.426,0.601L584.8,336.4z M596.3,334.2
			c0.551-0.015,1.026,0.169,1.425,0.55c0.402,0.383,0.611,0.85,0.625,1.4c0.014,0.557-0.169,1.041-0.55,1.449l-2.85,2.851
			c-0.384,0.392-0.851,0.593-1.4,0.6c-0.551,0.015-1.025-0.169-1.425-0.55c-0.402-0.383-0.611-0.85-0.625-1.4
			c-0.014-0.557,0.17-1.041,0.55-1.449l2.851-2.851C595.283,334.408,595.75,334.207,596.3,334.2z M595.55,347.225l3.75,3.65
			c0.394,0.385,0.593,0.852,0.601,1.4c0.005,0.551-0.188,1.026-0.575,1.425c-0.384,0.394-0.851,0.595-1.4,0.6
			s-1.024-0.187-1.425-0.575l-3.75-3.649c-0.393-0.385-0.593-0.851-0.6-1.4c-0.006-0.552,0.186-1.026,0.574-1.425
			c0.385-0.395,0.852-0.594,1.4-0.6C594.676,346.645,595.15,346.836,595.55,347.225z M457.475,288.9
			c-0.389-0.398-0.58-0.874-0.574-1.426c0.006-0.549,0.205-1.016,0.6-1.399c0.397-0.388,0.873-0.58,1.425-0.575
			c15.559,0.267,30.884,0.75,45.976,1.45c0.546,0.025,1.004,0.242,1.375,0.649c0.374,0.413,0.549,0.896,0.524,1.45
			c-0.024,0.547-0.241,1.005-0.649,1.375c-0.413,0.374-0.896,0.549-1.45,0.525c-15.042-0.7-30.317-1.184-45.825-1.45
			C458.326,289.494,457.859,289.294,457.475,288.9z M756.4,321.45c0.532,0.139,0.94,0.447,1.225,0.925
			c0.285,0.479,0.359,0.987,0.225,1.525c-0.139,0.533-0.446,0.941-0.925,1.225c-0.479,0.285-0.986,0.359-1.524,0.225
			c-48.475-12.244-100.725-21.36-156.75-27.35c-0.551-0.064-1-0.314-1.351-0.75c-0.345-0.434-0.486-0.926-0.425-1.475
			c0.057-0.542,0.298-0.983,0.725-1.325c0.434-0.353,0.926-0.503,1.476-0.45C655.307,300.011,707.749,309.16,756.4,321.45z
			 M751.8,279.175c0.541,0.086,0.975,0.353,1.3,0.8c0.331,0.443,0.456,0.935,0.375,1.476c-0.078,0.54-0.337,0.974-0.774,1.3
			l-4.25,3.1c-0.452,0.33-0.952,0.455-1.5,0.375c-0.541-0.086-0.975-0.352-1.3-0.8c-0.331-0.442-0.456-0.934-0.375-1.475
			c0.078-0.541,0.337-0.974,0.774-1.3l4.25-3.101C750.752,279.22,751.252,279.095,751.8,279.175z M755.525,281.1
			c0.431-0.352,0.922-0.502,1.475-0.449c0.546,0.055,0.996,0.296,1.35,0.725l3.301,3.95c0.351,0.431,0.501,0.923,0.449,1.475
			c-0.055,0.548-0.296,0.997-0.725,1.351c-0.431,0.352-0.923,0.502-1.475,0.449c-0.547-0.055-0.997-0.297-1.351-0.725l-3.3-3.95
			c-0.352-0.431-0.501-0.923-0.45-1.475C754.854,281.902,755.097,281.453,755.525,281.1z M758.375,275.975
			c0.291-0.477,0.708-0.785,1.25-0.925l3.55-0.95c0.529-0.134,1.029-0.059,1.5,0.226c0.479,0.284,0.786,0.692,0.925,1.225
			c0.135,0.538,0.061,1.046-0.225,1.525c-0.291,0.478-0.708,0.786-1.25,0.925l-3.55,0.95c-0.529,0.134-1.029,0.06-1.5-0.226
			c-0.479-0.283-0.786-0.691-0.925-1.225C758.016,276.962,758.09,276.453,758.375,275.975z M753.95,274.625
			c-0.315-0.456-0.424-0.956-0.325-1.5l1-5.45c0.106-0.537,0.39-0.962,0.85-1.274c0.449-0.316,0.94-0.424,1.476-0.325
			c0.547,0.105,0.979,0.39,1.3,0.85c0.315,0.456,0.424,0.956,0.325,1.5l-1,5.45c-0.106,0.537-0.39,0.963-0.851,1.275
			c-0.448,0.314-0.94,0.424-1.475,0.324C754.703,275.369,754.27,275.086,753.95,274.625z M743.675,270.325
			c0.339-0.435,0.78-0.685,1.325-0.75c0.546-0.07,1.037,0.063,1.475,0.399l5.851,4.5c0.434,0.34,0.684,0.781,0.75,1.325
			c0.07,0.546-0.063,1.038-0.4,1.476c-0.338,0.434-0.78,0.684-1.325,0.75c-0.546,0.069-1.037-0.064-1.475-0.4l-5.85-4.5
			c-0.434-0.34-0.684-0.781-0.75-1.325C743.204,271.254,743.337,270.762,743.675,270.325z M651.725,324.05
			c0.141-0.534,0.448-0.942,0.926-1.225c0.472-0.276,0.972-0.344,1.5-0.2c0.534,0.133,0.942,0.434,1.225,0.9l3.05,5.1
			c0.276,0.482,0.344,0.99,0.2,1.525c-0.14,0.534-0.448,0.942-0.925,1.225c-0.473,0.277-0.973,0.344-1.5,0.2
			c-0.534-0.134-0.942-0.433-1.226-0.9l-3.05-5.1C651.648,325.093,651.582,324.584,651.725,324.05z M672.4,253.25
			c0.556-0.004,1.03,0.188,1.425,0.575c0.387,0.394,0.578,0.868,0.575,1.425v8.9h8.85c0.556-0.004,1.031,0.188,1.425,0.574
			c0.387,0.395,0.579,0.869,0.575,1.426c0.004,0.556-0.188,1.03-0.575,1.425c-0.394,0.387-0.869,0.578-1.425,0.575h-8.85v8.899
			c0.003,0.556-0.188,1.031-0.575,1.425c-0.395,0.387-0.869,0.579-1.425,0.575c-0.557,0.004-1.031-0.188-1.426-0.575
			c-0.387-0.394-0.578-0.869-0.574-1.425v-8.899h-8.9c-0.556,0.003-1.031-0.188-1.425-0.575c-0.387-0.395-0.579-0.869-0.575-1.425
			c-0.004-0.557,0.188-1.031,0.575-1.426c0.394-0.387,0.869-0.578,1.425-0.574h8.9v-8.9c-0.004-0.557,0.188-1.031,0.574-1.425
			C671.369,253.438,671.844,253.246,672.4,253.25z M673.425,171.575c0.395-0.387,0.869-0.579,1.425-0.575
			c0.557-0.004,1.031,0.188,1.426,0.575c0.387,0.394,0.578,0.869,0.574,1.425v7.9h7.9c0.556-0.003,1.031,0.188,1.425,0.575
			c0.387,0.394,0.579,0.869,0.575,1.425c0.004,0.556-0.188,1.031-0.575,1.425c-0.394,0.387-0.869,0.578-1.425,0.575h-7.9v7.9
			c0.004,0.556-0.188,1.031-0.574,1.425c-0.395,0.387-0.869,0.579-1.426,0.575c-0.556,0.004-1.03-0.188-1.425-0.575
			c-0.387-0.394-0.578-0.869-0.575-1.425v-7.9H665c-0.556,0.003-1.031-0.188-1.425-0.575c-0.387-0.395-0.579-0.869-0.575-1.425
			c-0.004-0.556,0.188-1.031,0.575-1.425c0.394-0.387,0.869-0.579,1.425-0.575h7.85V173
			C672.847,172.444,673.038,171.969,673.425,171.575z M726.8,217.5c-2.926,0.006-5.459,1.064-7.6,3.175
			c-2.1,2.072-3.149,4.563-3.15,7.476c-0.003,2.974,1.047,5.498,3.15,7.574c2.141,2.111,4.674,3.17,7.6,3.176
			c2.911-0.002,5.403-1.051,7.476-3.15l0.024-0.025c2.104-2.076,3.153-4.601,3.15-7.574c-0.001-2.912-1.051-5.403-3.15-7.476
			l-0.024-0.024C732.203,218.551,729.711,217.501,726.8,217.5z M716.4,217.825c2.926-2.89,6.393-4.331,10.399-4.325
			c4.011-0.001,7.443,1.44,10.3,4.325l0.025,0.024c2.885,2.856,4.326,6.29,4.325,10.301c-0.003,4.08-1.444,7.547-4.325,10.399
			l-0.025,0.025c-2.856,2.884-6.289,4.325-10.3,4.325c-4.007,0.006-7.474-1.437-10.399-4.325c-2.897-2.858-4.348-6.333-4.351-10.425
			C712.049,224.128,713.499,220.686,716.4,217.825z M806.575,336.225c0.253,0.492,0.295,1,0.125,1.525
			c-0.164,0.526-0.488,0.918-0.976,1.175c-0.491,0.253-1,0.294-1.524,0.125c-11.435-3.624-23.117-7.017-35.05-10.175
			c-0.536-0.141-0.944-0.449-1.226-0.925c-0.276-0.481-0.344-0.99-0.2-1.525c0.141-0.526,0.449-0.927,0.926-1.2
			c0.474-0.275,0.974-0.343,1.5-0.199c12,3.174,23.75,6.582,35.25,10.225C805.927,335.414,806.318,335.739,806.575,336.225z
			 M825.8,345.425c-0.495,0.253-1.004,0.294-1.524,0.125c-3.134-1.033-6.251-2.066-9.351-3.1l0.05,0.024
			c-0.784-0.241-1.534-0.482-2.25-0.725c-0.52-0.174-0.903-0.508-1.149-1c-0.254-0.494-0.295-1.003-0.125-1.525
			c0.174-0.52,0.507-0.903,1-1.149c0.494-0.253,1.002-0.295,1.524-0.125c0.685,0.225,1.401,0.45,2.15,0.675l0.05,0.025
			c3.1,1.033,6.217,2.066,9.351,3.1c0.521,0.174,0.904,0.508,1.149,1c0.254,0.494,0.295,1.002,0.125,1.525
			C826.626,344.795,826.293,345.178,825.8,345.425z M658.75,78.525c0.459-0.686,1.093-1.111,1.9-1.275
			c0.809-0.162,1.559-0.012,2.25,0.45c0.696,0.458,1.13,1.092,1.3,1.9c0.161,0.815,0.012,1.574-0.45,2.275l-3.2,4.75
			c-0.459,0.686-1.093,1.111-1.899,1.275c-0.81,0.162-1.56,0.012-2.25-0.45c-0.697-0.459-1.13-1.092-1.301-1.9
			c-0.161-0.815-0.011-1.574,0.45-2.275L658.75,78.525z M680.775,46.425c0.462-0.689,1.096-1.114,1.899-1.275
			c0.813-0.153,1.563,0.005,2.25,0.475c0.689,0.461,1.115,1.094,1.275,1.9c0.151,0.811-0.007,1.561-0.476,2.25l-14.649,21.55
			c-0.463,0.689-1.096,1.114-1.9,1.275c-0.812,0.153-1.562-0.005-2.25-0.475c-0.689-0.461-1.114-1.094-1.274-1.9
			c-0.152-0.811,0.006-1.561,0.475-2.25L680.775,46.425z M465.85,36.475c0.438,0.71,0.563,1.469,0.375,2.275l-5.1,21.5
			c-0.193,0.801-0.645,1.417-1.35,1.85c-0.711,0.439-1.469,0.564-2.275,0.375c-0.801-0.193-1.417-0.643-1.85-1.35
			c-0.438-0.71-0.563-1.469-0.375-2.275l5.1-21.5c0.193-0.801,0.645-1.417,1.35-1.85c0.711-0.439,1.469-0.564,2.275-0.375
			C464.801,35.318,465.417,35.768,465.85,36.475z M494.675,39.8c0.097,0.816-0.112,1.549-0.625,2.2L474.6,66.95
			c-0.514,0.65-1.182,1.025-2,1.125c-0.816,0.098-1.549-0.111-2.199-0.625c-0.652-0.513-1.027-1.18-1.125-2
			c-0.097-0.816,0.111-1.549,0.625-2.2L489.35,38.3c0.516-0.651,1.182-1.026,2-1.125c0.816-0.098,1.551,0.111,2.2,0.625
			C494.201,38.313,494.576,38.98,494.675,39.8z M502.2,59.525c0.81,0.163,1.442,0.587,1.899,1.275
			c0.454,0.692,0.596,1.442,0.426,2.25c-0.164,0.808-0.59,1.441-1.275,1.9l-19.9,13.1c-0.693,0.453-1.443,0.595-2.25,0.425
			c-0.809-0.163-1.441-0.588-1.899-1.275c-0.454-0.692-0.596-1.442-0.425-2.25c0.163-0.808,0.588-1.441,1.274-1.9l19.9-13.1
			C500.644,59.497,501.394,59.355,502.2,59.525z" fill="#9BA8D5" clip-rule="evenodd" fill-rule="evenodd"></path>
	</g>
	<g>
		<linearGradient y2="114.6003" x2="418.4478" y1="304.7998" x1="418.4478" gradientUnits="userSpaceOnUse" id="SVGID_1_">
			<stop style="stop-color:#478CCB" offset="0"></stop>
			<stop style="stop-color:#6AABDE" offset="1"></stop>
		</linearGradient>
		<path d="M260.425,251.825L278.2,250.6l-2.65-37.425
			L260.425,251.825z M276.1,197.05c0.61-0.354,1.26-0.479,1.95-0.375c0.689,0.11,1.272,0.428,1.75,0.95
			c0.481,0.518,0.748,1.127,0.8,1.825l3.8,53.75c0.059,0.813-0.183,1.53-0.725,2.149c-0.55,0.633-1.242,0.983-2.075,1.051
			l-25.5,1.75c-0.69,0.047-1.324-0.129-1.9-0.525c-0.577-0.398-0.969-0.932-1.175-1.6c-0.205-0.664-0.18-1.322,0.075-1.976
			l21.7-55.5C275.056,197.9,275.489,197.4,276.1,197.05z M336.575,268.35c0.626,0.548,0.967,1.23,1.025,2.051l0.75,10.699
			c0.05,0.822-0.2,1.548-0.75,2.176c-0.545,0.625-1.229,0.967-2.05,1.024l-13,0.925l0.35,5.301c0.05,0.828-0.2,1.553-0.75,2.175
			c-0.555,0.618-1.247,0.952-2.075,1c-0.827,0.05-1.552-0.2-2.175-0.75c-0.618-0.558-0.952-1.249-1-2.075l-0.55-8.25
			c-0.047-0.816,0.203-1.533,0.75-2.15c0.545-0.623,1.229-0.965,2.05-1.024l13-0.925l-0.55-7.726c-0.05-0.827,0.2-1.552,0.75-2.175
			c0.545-0.627,1.229-0.969,2.05-1.025C335.226,267.549,335.95,267.799,336.575,268.35z M415.35,129.55h0.05
			c4.301,0.01,7.968,1.452,11,4.325h0.024c3.132,2.967,4.689,6.542,4.675,10.725v116.65c0.01,4.186-1.549,7.744-4.675,10.675
			l-0.024,0.025c-3.035,2.896-6.702,4.347-11,4.35h-0.05c-4.297-0.005-7.98-1.464-11.05-4.375c-3.102-2.929-4.652-6.487-4.65-10.675
			V144.6c-0.007-4.182,1.535-7.757,4.625-10.725l0.025-0.025C407.371,130.987,411.054,129.554,415.35,129.55z M415.4,135.55h-0.05
			c-2.692-0.004-5,0.888-6.925,2.675l-0.025,0.025c-1.826,1.76-2.743,3.877-2.75,6.35v116.65c0.002,2.479,0.918,4.588,2.75,6.325
			h0.025c1.922,1.822,4.23,2.73,6.925,2.725h0.05c2.689,0.003,4.981-0.905,6.875-2.725l0.025-0.025c1.858-1.73,2.791-3.831,2.8-6.3
			V144.6c-0.006-2.483-0.939-4.608-2.8-6.375C420.399,136.432,418.099,135.54,415.4,135.55z M270.1,113.1l0.025-0.025
			c3.76-9.446,11.369-13.671,22.825-12.675c0.046,0.007,0.096,0.016,0.15,0.025c11.234,1.54,17.134,7.215,17.7,17.025l9.15,130.225
			l12.975-0.925c0.833-0.058,1.566,0.192,2.2,0.75c0.632,0.553,0.974,1.244,1.025,2.075l0.45,6.649
			c0.049,0.828-0.201,1.553-0.75,2.176c-0.556,0.619-1.247,0.951-2.075,1c-0.827,0.05-1.552-0.2-2.175-0.75
			c-0.619-0.557-0.952-1.248-1-2.075l-0.25-3.601l-12.975,0.926c-0.825,0.061-1.55-0.181-2.175-0.726
			c-0.635-0.55-0.985-1.241-1.05-2.075l-9.35-133.25c-0.563-6.547-4.679-10.364-12.35-11.45c-8.345-0.738-13.937,2.237-16.775,8.925
			l0.025-0.025l-52.8,135.25l0.025-0.1c-0.552,1.589-0.777,3.163-0.675,4.725l1.3,18.101v0.05c0.071,1.413,0.379,2.722,0.925,3.925
			c0.827,1.752,2.111,3.318,3.85,4.7c3.402,2.303,7.077,3.319,11.025,3.05l44.05-3.05c0.824-0.05,1.549,0.2,2.175,0.75
			c0.625,0.545,0.967,1.228,1.025,2.05l1.4,20.4l29.725-2.101l-0.175-2.625c-0.059-0.822,0.183-1.548,0.725-2.175
			c0.543-0.634,1.227-0.984,2.05-1.05c0.823-0.06,1.548,0.182,2.175,0.725c0.633,0.543,0.983,1.227,1.05,2.05l0.4,5.65
			c0.061,0.83-0.181,1.564-0.725,2.2c-0.55,0.626-1.242,0.968-2.075,1.024l-35.75,2.5c-0.826,0.053-1.551-0.197-2.175-0.75
			c-0.627-0.545-0.969-1.228-1.025-2.05l-1.4-20.399L239.75,291c-5.383,0.393-10.383-1.016-15-4.225
			c-0.056-0.041-0.115-0.084-0.175-0.125c-2.527-2.02-4.377-4.319-5.55-6.9c-0.854-1.863-1.346-3.889-1.475-6.075l-1.3-18.05V255.6
			c-0.162-2.363,0.18-4.746,1.025-7.149c0.009-0.032,0.018-0.065,0.025-0.101L270.1,113.1z M606.275,275.825
			c0.586-0.585,1.295-0.876,2.125-0.875c0.829-0.001,1.537,0.29,2.125,0.875c0.584,0.587,0.876,1.295,0.875,2.125
			c0,0.354-0.033,0.679-0.101,0.975c-0.146,0.853-0.445,1.669-0.899,2.45c-0.625,2.449-1.467,4.633-2.525,6.55l0.05-0.05
			c-2.102,4.059-5.002,7.717-8.7,10.975c-0.626,0.551-1.351,0.801-2.175,0.75c-0.82-0.057-1.504-0.398-2.05-1.024
			c-0.551-0.624-0.801-1.35-0.75-2.175c0.059-0.82,0.4-1.504,1.025-2.051c3.102-2.741,5.535-5.816,7.3-9.225
			c0.017-0.012,0.033-0.027,0.05-0.05c0.872-1.624,1.555-3.482,2.05-5.575c0.086-0.349,0.228-0.674,0.425-0.975
			c0.143-0.215,0.234-0.439,0.275-0.676c0.01-0.061,0.019-0.119,0.025-0.175C605.467,276.96,605.759,276.344,606.275,275.825z
			 M465.3,258.25c-0.829,0.001-1.538-0.291-2.125-0.875c-0.585-0.587-0.876-1.295-0.875-2.125V140.2
			c-0.046-10.402-4.604-19.386-13.675-26.95c-9.23-7.78-20.305-11.664-33.225-11.65c-12.922-0.015-24.031,3.868-33.325,11.65
			c-9.009,7.564-13.534,16.547-13.575,26.95v126c0.004,1.009,0.054,2.017,0.15,3.024v0.025c0.522,6.369,2.856,12.161,7,17.375
			c1.822,2.285,3.972,4.477,6.45,6.575l-0.075-0.05c1.06,0.846,2.134,1.629,3.225,2.35l0.025,0.025
			c8.587,5.805,18.629,8.695,30.125,8.675c11.491,0.003,21.533-2.889,30.125-8.675c0.688-0.469,1.438-0.627,2.25-0.476
			c0.805,0.161,1.438,0.585,1.899,1.275c0.47,0.688,0.628,1.438,0.476,2.25c-0.162,0.804-0.586,1.438-1.275,1.899
			c-9.541,6.48-20.699,9.723-33.475,9.726c-12.771-0.021-23.929-3.263-33.475-9.726l0.025,0.025
			c-1.243-0.813-2.468-1.695-3.675-2.65c-0.022-0.018-0.048-0.035-0.075-0.05c-2.789-2.368-5.205-4.843-7.25-7.425
			c-4.923-6.187-7.689-13.062-8.3-20.625c-0.104-1.184-0.154-2.367-0.15-3.55v-126c-0.042-12.198,5.2-22.714,15.725-31.55
			c10.373-8.685,22.764-13.035,37.175-13.05c14.414,0.014,26.772,4.364,37.075,13.05c10.596,8.835,15.871,19.352,15.825,31.55
			v115.05c0.001,0.83-0.29,1.538-0.875,2.125C466.838,257.959,466.13,258.251,465.3,258.25z M463.175,264.075
			c0.587-0.585,1.296-0.876,2.125-0.875c0.83-0.001,1.538,0.29,2.125,0.875c0.585,0.587,0.876,1.295,0.875,2.125
			c0.002,1.158-0.031,2.316-0.1,3.475c0,0.021,0,0.045,0,0.075c-0.647,7.563-3.431,14.438-8.351,20.625
			c-0.514,0.642-1.182,1.008-2,1.1c-0.818,0.098-1.551-0.111-2.199-0.625c-0.652-0.514-1.027-1.181-1.125-2
			c-0.098-0.824,0.111-1.565,0.625-2.225c4.146-5.213,6.496-11.005,7.05-17.375c0.064-1.017,0.099-2.033,0.1-3.05
			C462.299,265.37,462.59,264.662,463.175,264.075z M555.55,141.425l0.101-0.05c-0.029-0.006-0.063-0.048-0.101-0.125
			C555.551,141.306,555.551,141.365,555.55,141.425z M521.7,114.525l0.024-0.025c10.828-7.888,24.928-11.438,42.301-10.65
			c0.024-0.001,0.05-0.001,0.074,0c9.717,0.25,18.482,1.899,26.301,4.95l0.024,0.025c6.066,2.439,11.226,5.247,15.476,8.425
			l0.024,0.025c6.622,5.102,11.063,11.168,13.325,18.2c0.063,0.201,0.104,0.401,0.125,0.6c0.249,2.183,0.499,4.191,0.75,6.025
			c0.465,1.168,0.64,2.293,0.525,3.375L617.1,196.3c0.016,6.655-2.851,12.772-8.6,18.351c2.916,4.258,4.799,8.583,5.65,12.975
			c0.009,0.046,0.018,0.088,0.024,0.125c0.331,2.175,0.423,4.35,0.275,6.525v0.024c-0.067,1.184-0.15,2.366-0.25,3.55l-1.851,26.476
			c-0.066,0.823-0.416,1.507-1.05,2.05c-0.627,0.543-1.353,0.785-2.175,0.725c-0.823-0.066-1.507-0.416-2.05-1.05
			c-0.542-0.628-0.784-1.353-0.726-2.175l1.851-26.5v-0.025c0.099-1.141,0.183-2.283,0.25-3.425V233.9
			c0.117-1.75,0.042-3.5-0.226-5.25c-0.881-4.263-2.914-8.454-6.1-12.575c-0.486-0.631-0.687-1.339-0.6-2.125
			c0.078-0.793,0.42-1.451,1.024-1.976c5.619-4.801,8.47-10.092,8.55-15.875c-0.002-0.066-0.002-0.133,0-0.199l3.551-50.9
			c0-0.022,0-0.047,0-0.075c0.004-0.244-0.055-0.502-0.176-0.775c-0.125-0.275-0.208-0.559-0.25-0.85
			c-0.254-1.895-0.504-3.97-0.75-6.225c-1.967-5.788-5.691-10.796-11.175-15.025l-0.024-0.025c-3.88-2.878-8.58-5.428-14.101-7.65
			l0.025,0.025c-7.229-2.808-15.337-4.325-24.325-4.55c-0.023,0-0.049,0-0.075,0c-15.845-0.733-28.711,2.441-38.6,9.525
			l-0.025,0.025c-7.665,5.424-12.007,11.774-13.024,19.05l-1.95,27.45l36.75,2.55l1.899-26.85c0.031-0.442,0.156-0.859,0.375-1.25
			c0.17-0.306,0.378-0.573,0.625-0.8c0.227-0.515,0.561-1.081,1-1.7c0.339-0.465,0.772-0.807,1.301-1.025
			c0.238-0.097,0.48-0.164,0.725-0.2c0.359-0.244,0.692-0.502,1-0.775c0.437-0.398,0.945-0.648,1.525-0.75
			c1.84-0.32,4.323-0.587,7.449-0.8c0.131-0.009,0.264-0.009,0.4,0c4.836,0.344,8.193,1.077,10.075,2.2
			c2.571,1.288,4.054,3.671,4.45,7.15c0.025,0.189,0.033,0.373,0.024,0.55l-3.5,49.55v0.05c0.002,0.034,0.002,0.067,0,0.101
			c0.058,1.545-0.51,2.554-1.7,3.024c-0.486,0.413-1.145,0.788-1.975,1.125c-1.627,0.919-4.734,1.218-9.325,0.9l-15.55-1.101
			L544,222.8l16.175,1.15c2.154,0.134,3.871,0.25,5.15,0.35c0.301,0.024,0.593,0.091,0.875,0.2c1.854,0.739,3.055,1.464,3.6,2.175
			c0.851,0.806,1.292,1.89,1.325,3.25c0.404,0.976,0.579,1.751,0.525,2.325c0.002,0.061,0.002,0.127,0,0.2l-2.95,41.5
			c-0.057,0.726-0.331,1.351-0.825,1.875c-0.142,0.487-0.333,0.888-0.575,1.2c-0.79,1.434-1.823,2.375-3.1,2.824
			c-2.188,1.278-5.931,1.729-11.226,1.351c-0.082-0.005-0.166-0.014-0.25-0.025c-4.686-0.745-7.951-1.661-9.8-2.75l0.101,0.025
			c-1.875-0.97-2.858-2.02-2.95-3.15c-0.116-0.211-0.207-0.428-0.275-0.649c-0.101-0.314-0.151-0.631-0.149-0.95
			c0-0.134,0-0.25,0-0.351c-0.003-0.065-0.003-0.133,0-0.199l1.949-28l-36.75-2.551L503,268.725c-0.033,0.855-0.066,1.498-0.1,1.926
			c-0.016,0.187-0.04,0.361-0.075,0.524c-0.016,0.482-0.032,0.949-0.05,1.4c0.235,1.801,0.477,3.609,0.725,5.425
			c1.245,3.766,3.254,7.199,6.025,10.3l-0.025-0.05c0.93,0.998,1.921,1.965,2.975,2.9c0.078,0.066,0.154,0.134,0.226,0.199
			c2.419,2.59,5.478,4.831,9.175,6.726c1.156,0.599,2.424,1.183,3.8,1.75c0.037,0.016,0.079,0.032,0.125,0.05
			c6.733,3.074,14.8,4.949,24.2,5.625l1.9,0.1h0.05c8.595,0.615,16.437,0.049,23.524-1.699c0.056-0.018,0.105-0.035,0.15-0.051
			c2.104-0.408,4.129-0.941,6.075-1.6c0.778-0.259,1.536-0.201,2.274,0.175c0.747,0.368,1.256,0.944,1.525,1.726
			c0.26,0.777,0.201,1.535-0.175,2.274c-0.361,0.747-0.928,1.255-1.7,1.525c-2.195,0.741-4.479,1.341-6.85,1.8l0.149-0.05
			c-7.631,1.915-16.072,2.548-25.325,1.899h-0.05l-1.85-0.1c-0.024,0-0.05,0-0.075,0c-10.234-0.732-19.01-2.79-26.325-6.175
			c-1.509-0.616-2.899-1.25-4.175-1.9c-4.37-2.239-7.979-4.897-10.825-7.975c-1.13-1.003-2.196-2.036-3.2-3.101l-0.024-0.05
			c-3.426-3.821-5.884-8.063-7.375-12.725c-0.058-0.177-0.099-0.351-0.125-0.525c-0.267-1.999-0.534-3.983-0.8-5.95
			c-0.026-0.186-0.035-0.368-0.025-0.55c0.033-0.634,0.066-1.283,0.1-1.95c0.008-0.137,0.023-0.27,0.051-0.399v-0.05
			c0.033-0.373,0.066-0.932,0.1-1.676c0-0.021,0-0.046,0-0.074l2.05-29.2c0.058-0.821,0.399-1.505,1.025-2.05
			c0.626-0.551,1.351-0.801,2.175-0.75L545,239.35c0.822,0.055,1.506,0.396,2.05,1.025c0.555,0.629,0.805,1.354,0.75,2.175
			l-2.125,30.55c0.034,0.016,0.067,0.033,0.101,0.051c0.031,0.01,0.064,0.018,0.1,0.024c1.475,0.772,4.049,1.448,7.725,2.025
			c3.737,0.263,6.354,0.03,7.851-0.7c0.176-0.102,0.358-0.184,0.55-0.25c0.014-0.029,0.031-0.063,0.05-0.1
			c0.028-0.057,0.062-0.123,0.101-0.2c0.146-0.306,0.338-0.581,0.574-0.825l2.9-40.9c-0.055-0.08-0.129-0.223-0.225-0.425
			c-0.195-0.397-0.296-0.813-0.301-1.25c-0.183-0.082-0.407-0.174-0.675-0.274c-1.2-0.1-2.733-0.207-4.6-0.325l-19.25-1.351
			c-0.815-0.061-1.489-0.402-2.025-1.024c-0.548-0.626-0.798-1.351-0.75-2.175l2.15-30.95c0.056-0.823,0.397-1.506,1.024-2.05
			c0.625-0.553,1.35-0.803,2.176-0.75l18.55,1.3c3.079,0.216,5.17,0.115,6.274-0.3c0.061-0.025,0.119-0.051,0.176-0.075
			c0.027-0.009,0.053-0.017,0.074-0.025c0.051-0.019,0.1-0.036,0.15-0.05v-0.2l3.4-48.25c-0.17-1.034-0.604-1.784-1.301-2.25
			c-0.023-0.019-0.049-0.035-0.074-0.05c-1.377-0.702-3.826-1.177-7.351-1.425c-2.347,0.149-4.288,0.333-5.825,0.55
			c-0.283,0.231-0.574,0.456-0.875,0.675l-0.699,0.55c-0.09,0.062-0.182,0.121-0.275,0.175c-0.041,0.117-0.091,0.234-0.15,0.35
			c-0.125,0.241-0.274,0.458-0.449,0.65l-2.025,28.575c-0.066,0.833-0.417,1.524-1.05,2.075c-0.62,0.542-1.337,0.784-2.15,0.725
			l-42.75-2.95c-0.82-0.058-1.503-0.4-2.05-1.025c-0.551-0.625-0.801-1.35-0.75-2.175l2.15-30.45
			c0.006-0.053,0.015-0.111,0.024-0.175C507.199,128.901,512.374,121.118,521.7,114.525z" fill="url(#SVGID_1_)" clip-rule="evenodd" fill-rule="evenodd"></path>
	</g>
</g>
</svg>
