<svg xml:space="preserve" viewBox="0 0 850.39 368.5" height="368.5px" width="850.39px" y="0px" x="0px" xmlns:xlink="http://www.w3.org/1999/xlink" xmlns="http://www.w3.org/2000/svg" id="图层_1" version="1.1">
<g>
	<g>
		<path d="M812.45,338.075c0.494-0.253,1.002-0.295,1.524-0.125
			c0.685,0.225,1.401,0.45,2.15,0.675l0.05,0.025c3.1,1.033,6.217,2.066,9.351,3.1c0.521,0.174,0.904,0.508,1.149,1
			c0.254,0.494,0.295,1.002,0.125,1.525c-0.174,0.52-0.507,0.902-1,1.149c-0.495,0.253-1.004,0.294-1.524,0.125
			c-3.134-1.033-6.251-2.066-9.351-3.1l0.05,0.024c-0.784-0.241-1.534-0.482-2.25-0.725c-0.52-0.174-0.903-0.508-1.149-1
			c-0.254-0.494-0.295-1.003-0.125-1.525C811.624,338.705,811.957,338.321,812.45,338.075z M665.525,338.175l3.449,4.2
			c0.359,0.422,0.519,0.905,0.476,1.45c-0.055,0.546-0.296,0.997-0.726,1.35c-0.421,0.36-0.904,0.519-1.449,0.476
			c-0.546-0.055-0.996-0.297-1.351-0.726l-3.45-4.2c-0.359-0.422-0.518-0.904-0.475-1.449c0.055-0.547,0.296-0.997,0.725-1.351
			c0.422-0.36,0.905-0.519,1.45-0.475C664.721,337.504,665.171,337.746,665.525,338.175z M664,333.825
			c-0.547-0.106-0.979-0.39-1.3-0.851c-0.315-0.448-0.424-0.939-0.325-1.475c0.106-0.546,0.39-0.979,0.85-1.3l4.2-2.95
			c0.449-0.314,0.941-0.424,1.476-0.325c0.546,0.106,0.979,0.39,1.3,0.851c0.315,0.448,0.424,0.939,0.325,1.475
			c-0.107,0.546-0.391,0.979-0.851,1.3l-4.2,2.95C665.025,333.814,664.534,333.924,664,333.825z M651.725,324.05
			c0.141-0.534,0.448-0.942,0.926-1.225c0.472-0.276,0.972-0.344,1.5-0.2c0.534,0.133,0.942,0.434,1.225,0.9l3.05,5.1
			c0.276,0.482,0.344,0.99,0.2,1.525c-0.14,0.534-0.448,0.942-0.925,1.225c-0.473,0.276-0.973,0.344-1.5,0.2
			c-0.534-0.134-0.942-0.433-1.226-0.9l-3.05-5.1C651.648,325.093,651.582,324.584,651.725,324.05z M649.225,344.1
			c-0.531-0.138-0.939-0.446-1.225-0.925c-0.293-0.47-0.377-0.97-0.25-1.5c0.139-0.531,0.447-0.94,0.925-1.225l5.351-3.2
			c0.47-0.293,0.97-0.376,1.5-0.25c0.532,0.139,0.94,0.446,1.225,0.925c0.293,0.47,0.376,0.97,0.25,1.5
			c-0.139,0.532-0.447,0.94-0.925,1.226l-5.351,3.199C650.254,344.143,649.754,344.226,649.225,344.1z M767.925,327.95
			c-0.276-0.481-0.344-0.99-0.2-1.525c0.141-0.526,0.449-0.927,0.926-1.2c0.474-0.275,0.974-0.343,1.5-0.199
			c12,3.174,23.75,6.582,35.25,10.225c0.526,0.164,0.918,0.489,1.175,0.975c0.253,0.492,0.295,1,0.125,1.525
			c-0.164,0.526-0.488,0.918-0.976,1.175c-0.491,0.253-1,0.294-1.524,0.125c-11.435-3.624-23.117-7.017-35.05-10.175
			C768.614,328.734,768.206,328.426,767.925,327.95z M750.3,279.55c0.452-0.33,0.952-0.455,1.5-0.375
			c0.541,0.086,0.975,0.353,1.3,0.8c0.331,0.443,0.456,0.935,0.375,1.476c-0.078,0.54-0.337,0.974-0.774,1.3l-4.25,3.1
			c-0.452,0.33-0.952,0.455-1.5,0.375c-0.541-0.086-0.975-0.352-1.3-0.8c-0.331-0.442-0.456-0.934-0.375-1.475
			c0.078-0.541,0.337-0.974,0.774-1.3L750.3,279.55z M743.675,270.325c0.339-0.435,0.78-0.685,1.325-0.75
			c0.546-0.07,1.037,0.063,1.475,0.399l5.851,4.5c0.434,0.34,0.684,0.781,0.75,1.325c0.07,0.546-0.063,1.038-0.4,1.476
			c-0.338,0.434-0.78,0.684-1.325,0.75c-0.546,0.069-1.037-0.064-1.475-0.4l-5.85-4.5c-0.434-0.34-0.684-0.781-0.75-1.325
			C743.204,271.254,743.337,270.762,743.675,270.325z M755.525,281.1c0.431-0.352,0.922-0.502,1.475-0.449
			c0.546,0.055,0.996,0.296,1.35,0.725l3.301,3.95c0.351,0.431,0.501,0.923,0.449,1.475c-0.055,0.548-0.296,0.997-0.725,1.351
			c-0.431,0.352-0.923,0.502-1.475,0.449c-0.547-0.055-0.997-0.297-1.351-0.725l-3.3-3.95c-0.352-0.431-0.501-0.923-0.45-1.475
			C754.854,281.902,755.097,281.453,755.525,281.1z M763.175,274.1c0.529-0.134,1.029-0.059,1.5,0.226
			c0.479,0.284,0.786,0.692,0.925,1.225c0.135,0.538,0.061,1.046-0.225,1.525c-0.291,0.478-0.708,0.786-1.25,0.925l-3.55,0.95
			c-0.529,0.134-1.029,0.06-1.5-0.226c-0.479-0.283-0.786-0.691-0.925-1.225c-0.135-0.538-0.061-1.046,0.225-1.525
			c0.291-0.477,0.708-0.785,1.25-0.925L763.175,274.1z M758.25,266.925c0.315,0.456,0.424,0.956,0.325,1.5l-1,5.45
			c-0.106,0.537-0.39,0.963-0.851,1.275c-0.448,0.314-0.94,0.424-1.475,0.324c-0.547-0.105-0.98-0.389-1.3-0.85
			c-0.315-0.456-0.424-0.956-0.325-1.5l1-5.45c0.106-0.537,0.39-0.962,0.85-1.274c0.449-0.316,0.94-0.424,1.476-0.325
			C757.497,266.181,757.93,266.465,758.25,266.925z M512.075,287.85c0.374,0.413,0.549,0.896,0.524,1.45
			c-0.024,0.547-0.241,1.005-0.649,1.375c-0.412,0.374-0.896,0.549-1.45,0.525c-16.816-0.8-33.934-1.366-51.35-1.7
			c-0.551-0.015-1.018-0.223-1.4-0.625c-0.381-0.399-0.564-0.875-0.55-1.425s0.223-1.017,0.625-1.4
			c0.399-0.38,0.874-0.563,1.425-0.55c17.45,0.333,34.6,0.9,51.45,1.7C511.246,287.226,511.704,287.441,512.075,287.85z
			 M592.75,350.075c-0.393-0.385-0.593-0.852-0.6-1.4c-0.006-0.552,0.186-1.026,0.574-1.425c0.385-0.395,0.852-0.594,1.4-0.6
			c0.551-0.006,1.025,0.186,1.425,0.574l3.75,3.65c0.394,0.385,0.593,0.852,0.601,1.4c0.005,0.551-0.188,1.026-0.575,1.425
			c-0.384,0.394-0.851,0.594-1.4,0.6c-0.55,0.005-1.024-0.187-1.425-0.575L592.75,350.075z M584.7,345.85
			c0.556-0.004,1.03,0.188,1.425,0.575c0.387,0.394,0.578,0.869,0.575,1.425c0.003,0.557-0.188,1.031-0.575,1.426l-3.8,3.75
			c-0.395,0.387-0.869,0.578-1.425,0.574c-0.557,0.004-1.031-0.188-1.426-0.574c-0.387-0.395-0.578-0.869-0.574-1.426
			c-0.004-0.556,0.188-1.031,0.574-1.425l3.801-3.75C583.669,346.038,584.145,345.846,584.7,345.85z M578.45,334.825
			c0.005-0.55,0.206-1.017,0.6-1.4c0.399-0.388,0.874-0.58,1.425-0.575c0.557,0.006,1.031,0.206,1.426,0.601l2.899,2.95
			c0.379,0.398,0.563,0.873,0.55,1.425c-0.006,0.549-0.205,1.016-0.6,1.399c-0.398,0.389-0.873,0.58-1.425,0.575
			c-0.557-0.006-1.031-0.206-1.425-0.6l-2.9-2.95C578.621,335.852,578.438,335.377,578.45,334.825z M596.3,334.2
			c0.551-0.015,1.026,0.169,1.425,0.55c0.402,0.383,0.611,0.85,0.625,1.4c0.014,0.557-0.169,1.04-0.55,1.449l-2.85,2.851
			c-0.384,0.392-0.851,0.593-1.4,0.6c-0.551,0.015-1.025-0.169-1.425-0.55c-0.402-0.383-0.611-0.85-0.625-1.4
			c-0.014-0.557,0.17-1.041,0.55-1.449l2.851-2.851C595.283,334.408,595.75,334.207,596.3,334.2z M596.35,297.15
			c-0.345-0.434-0.486-0.926-0.425-1.476c0.056-0.541,0.298-0.983,0.726-1.325c0.426-0.353,0.908-0.502,1.449-0.449
			c56.606,6.01,109.373,15.193,158.301,27.55c0.532,0.139,0.94,0.447,1.225,0.925c0.285,0.479,0.359,0.987,0.225,1.525
			c-0.139,0.533-0.446,0.941-0.925,1.225c-0.479,0.284-0.986,0.359-1.524,0.225c-48.741-12.311-101.308-21.461-157.7-27.449
			C597.149,297.835,596.699,297.585,596.35,297.15z M726.8,217.5c-2.926,0.006-5.459,1.064-7.6,3.175
			c-2.1,2.072-3.149,4.563-3.15,7.476c-0.003,2.974,1.047,5.498,3.15,7.574c2.141,2.111,4.674,3.17,7.6,3.176
			c2.911-0.002,5.403-1.051,7.476-3.15l0.024-0.025c2.104-2.076,3.153-4.601,3.15-7.574c-0.001-2.912-1.051-5.403-3.15-7.476
			l-0.024-0.024C732.203,218.551,729.711,217.501,726.8,217.5z M716.4,217.825c2.926-2.89,6.393-4.331,10.399-4.325
			c4.011-0.001,7.443,1.44,10.3,4.325l0.025,0.024c2.885,2.856,4.326,6.29,4.325,10.301c-0.003,4.08-1.444,7.547-4.325,10.399
			l-0.025,0.025c-2.856,2.884-6.289,4.326-10.3,4.325c-4.007,0.006-7.474-1.437-10.399-4.325c-2.897-2.858-4.348-6.333-4.351-10.425
			C712.049,224.128,713.499,220.686,716.4,217.825z M670.975,253.825c0.395-0.388,0.869-0.579,1.426-0.575
			c0.556-0.004,1.03,0.188,1.425,0.575c0.387,0.394,0.578,0.868,0.575,1.425v8.9h8.85c0.556-0.004,1.031,0.188,1.425,0.574
			c0.387,0.395,0.579,0.869,0.575,1.426c0.004,0.556-0.188,1.03-0.575,1.425c-0.394,0.387-0.869,0.578-1.425,0.575h-8.85v8.899
			c0.003,0.556-0.188,1.031-0.575,1.425c-0.395,0.387-0.869,0.579-1.425,0.575c-0.557,0.004-1.031-0.188-1.426-0.575
			c-0.387-0.394-0.578-0.869-0.574-1.425v-8.899h-8.9c-0.556,0.003-1.031-0.188-1.425-0.575c-0.387-0.395-0.579-0.869-0.575-1.425
			c-0.004-0.557,0.188-1.031,0.575-1.426c0.394-0.387,0.869-0.578,1.425-0.574h8.9v-8.9
			C670.396,254.693,670.588,254.219,670.975,253.825z M674.85,171c0.557-0.004,1.031,0.188,1.426,0.575
			c0.387,0.394,0.578,0.869,0.574,1.425v7.9h7.9c0.556-0.003,1.031,0.188,1.425,0.575c0.387,0.394,0.579,0.869,0.575,1.425
			c0.004,0.556-0.188,1.031-0.575,1.425c-0.394,0.387-0.869,0.578-1.425,0.575h-7.9v7.9c0.004,0.556-0.188,1.031-0.574,1.425
			c-0.395,0.387-0.869,0.579-1.426,0.575c-0.556,0.004-1.03-0.188-1.425-0.575c-0.387-0.394-0.578-0.869-0.575-1.425v-7.9H665
			c-0.556,0.003-1.031-0.188-1.425-0.575c-0.387-0.395-0.579-0.869-0.575-1.425c-0.004-0.556,0.188-1.031,0.575-1.425
			c0.394-0.387,0.869-0.579,1.425-0.575h7.85V173c-0.003-0.556,0.188-1.031,0.575-1.425C673.819,171.188,674.294,170.996,674.85,171
			z M663.75,81.875l-3.2,4.75c-0.459,0.686-1.093,1.111-1.899,1.275c-0.81,0.162-1.56,0.012-2.25-0.45
			c-0.697-0.459-1.13-1.092-1.301-1.9c-0.161-0.815-0.011-1.574,0.45-2.275l3.2-4.75c0.459-0.686,1.093-1.111,1.9-1.275
			c0.809-0.162,1.559-0.012,2.25,0.45c0.696,0.458,1.13,1.092,1.3,1.9C664.361,80.416,664.212,81.174,663.75,81.875z M682.675,45.15
			c0.813-0.153,1.563,0.005,2.25,0.475c0.689,0.461,1.115,1.094,1.275,1.9c0.151,0.811-0.007,1.561-0.476,2.25l-14.649,21.55
			c-0.463,0.689-1.096,1.114-1.9,1.275c-0.812,0.153-1.562-0.005-2.25-0.475c-0.689-0.461-1.114-1.094-1.274-1.9
			c-0.152-0.811,0.006-1.561,0.475-2.25l14.65-21.55C681.237,45.736,681.871,45.311,682.675,45.15z M502.2,59.525
			c0.81,0.163,1.442,0.587,1.899,1.275c0.454,0.692,0.596,1.442,0.426,2.25c-0.164,0.808-0.59,1.441-1.275,1.9l-19.9,13.1
			c-0.693,0.453-1.443,0.595-2.25,0.425c-0.809-0.163-1.441-0.587-1.899-1.275c-0.454-0.692-0.596-1.442-0.425-2.25
			c0.163-0.808,0.588-1.441,1.274-1.9l19.9-13.1C500.644,59.497,501.394,59.355,502.2,59.525z M489.35,38.3
			c0.516-0.651,1.182-1.026,2-1.125c0.816-0.098,1.551,0.111,2.2,0.625c0.651,0.514,1.026,1.18,1.125,2
			c0.097,0.816-0.112,1.549-0.625,2.2L474.6,66.95c-0.514,0.65-1.182,1.025-2,1.125c-0.816,0.098-1.549-0.111-2.199-0.625
			c-0.652-0.513-1.027-1.18-1.125-2c-0.097-0.816,0.111-1.549,0.625-2.2L489.35,38.3z M464,35.125
			c0.801,0.193,1.417,0.643,1.85,1.35c0.438,0.71,0.563,1.469,0.375,2.275l-5.1,21.5c-0.193,0.801-0.645,1.417-1.35,1.85
			c-0.711,0.439-1.469,0.564-2.275,0.375c-0.801-0.193-1.417-0.643-1.85-1.35c-0.438-0.71-0.563-1.469-0.375-2.275l5.1-21.5
			c0.193-0.801,0.645-1.417,1.35-1.85C462.436,35.061,463.193,34.936,464,35.125z M333.625,346.125
			c0.504,0.232,0.854,0.607,1.05,1.125l2.8,7.35c0.195,0.515,0.179,1.023-0.05,1.525c-0.232,0.504-0.607,0.854-1.125,1.05
			c-0.514,0.195-1.022,0.179-1.525-0.05c-0.504-0.232-0.854-0.607-1.05-1.125l-2.8-7.35c-0.195-0.516-0.178-1.023,0.05-1.525
			c0.232-0.504,0.607-0.854,1.125-1.05C332.614,345.879,333.122,345.896,333.625,346.125z M346.025,338.15
			c-0.196,0.517-0.546,0.892-1.05,1.125l-7.15,3.35c-0.503,0.229-1.011,0.245-1.525,0.05c-0.517-0.195-0.892-0.545-1.125-1.05
			c-0.229-0.502-0.245-1.01-0.05-1.525c0.196-0.517,0.546-0.892,1.05-1.125l7.15-3.35c0.502-0.229,1.011-0.245,1.525-0.05
			c0.517,0.195,0.892,0.545,1.125,1.05C346.204,337.127,346.22,337.635,346.025,338.15z M326.725,345.35
			c0.338,0.439,0.471,0.931,0.4,1.476c-0.068,0.546-0.318,0.987-0.75,1.325l-8.9,6.75c-0.448,0.329-0.948,0.454-1.5,0.375
			c-0.538-0.076-0.971-0.334-1.3-0.775c-0.338-0.438-0.471-0.931-0.4-1.475c0.068-0.546,0.318-0.988,0.75-1.325l8.9-6.75
			c0.448-0.329,0.948-0.454,1.5-0.375C325.963,344.65,326.396,344.908,326.725,345.35z M328.05,328.15
			c-0.003-0.557,0.188-1.031,0.575-1.426c0.394-0.387,0.869-0.578,1.425-0.574c0.556-0.004,1.031,0.188,1.425,0.574
			c0.387,0.395,0.579,0.869,0.575,1.426v5.55c0.004,0.556-0.188,1.03-0.575,1.425c-0.394,0.387-0.869,0.578-1.425,0.575
			c-0.556,0.003-1.031-0.188-1.425-0.575c-0.387-0.395-0.579-0.869-0.575-1.425V328.15z M313.75,334.375
			c0.245-0.5,0.628-0.842,1.15-1.025c0.518-0.178,1.026-0.145,1.525,0.101l7.65,3.7c0.498,0.244,0.839,0.627,1.025,1.149
			c0.178,0.52,0.145,1.028-0.1,1.525c-0.245,0.499-0.628,0.841-1.15,1.024c-0.518,0.179-1.026,0.146-1.525-0.1l-7.65-3.7
			c-0.498-0.245-0.839-0.628-1.025-1.149C313.472,335.381,313.505,334.872,313.75,334.375z M443.725,335.975h0.025
			c1.799-1.757,3.898-2.632,6.3-2.625c2.483,0.002,4.584,0.877,6.3,2.625l0.025,0.025c1.748,1.717,2.623,3.816,2.625,6.3
			c0.007,2.452-0.868,4.562-2.625,6.325c-1.723,1.715-3.831,2.574-6.325,2.575c-2.392,0.007-4.483-0.843-6.274-2.55
			c-0.016-0.018-0.032-0.035-0.051-0.051c-1.715-1.757-2.573-3.857-2.574-6.3C441.151,339.806,442.01,337.697,443.725,335.975z
			 M446.55,338.825h0.025c-0.952,0.944-1.427,2.103-1.425,3.475c-0.002,1.334,0.457,2.483,1.375,3.45
			c0.017,0.017,0.033,0.033,0.05,0.05c0.997,0.927,2.156,1.394,3.475,1.4c1.372,0.001,2.531-0.474,3.476-1.425
			c0.977-0.97,1.468-2.128,1.475-3.476c0.002-1.371-0.482-2.529-1.45-3.475l-0.024-0.025c-0.945-0.968-2.104-1.451-3.476-1.45
			C448.719,337.357,447.551,337.849,446.55,338.825z M373.625,286.5c0.401,0.382,0.61,0.849,0.625,1.4
			c0.015,0.549-0.169,1.023-0.55,1.425c-0.382,0.401-0.849,0.609-1.4,0.625c-16.574,0.467-32.883,1.167-48.925,2.1
			c-0.551,0.033-1.034-0.134-1.45-0.5c-0.415-0.367-0.64-0.825-0.675-1.375c-0.033-0.552,0.133-1.034,0.5-1.45
			c0.367-0.414,0.825-0.64,1.375-0.675c16.091-0.934,32.45-1.634,49.075-2.1C372.749,285.936,373.224,286.119,373.625,286.5z
			 M198.925,333.9c-0.152-0.532-0.094-1.04,0.175-1.525c0.27-0.482,0.67-0.799,1.2-0.95c0.531-0.151,1.039-0.093,1.525,0.175
			l5.15,2.9c0.481,0.271,0.798,0.671,0.95,1.2c0.152,0.531,0.094,1.04-0.175,1.524c-0.271,0.482-0.67,0.799-1.2,0.95
			c-0.53,0.152-1.039,0.094-1.525-0.175l-5.15-2.9C199.394,334.829,199.077,334.43,198.925,333.9z M192.525,330.975
			c0.523,0.162,0.916,0.486,1.175,0.976c0.269,0.487,0.327,0.996,0.175,1.524c-0.163,0.523-0.488,0.916-0.975,1.176l-5.9,3.199
			c-0.49,0.27-0.998,0.328-1.525,0.176c-0.523-0.162-0.915-0.486-1.175-0.976c-0.269-0.487-0.328-0.996-0.175-1.524
			c0.163-0.523,0.488-0.916,0.975-1.176l5.9-3.199C191.49,330.881,191.998,330.822,192.525,330.975z M191.4,318.025l3.7,4.25
			c0.366,0.417,0.533,0.9,0.5,1.449c-0.035,0.551-0.26,1.009-0.675,1.375c-0.416,0.367-0.899,0.534-1.45,0.5
			c-0.549-0.035-1.008-0.26-1.375-0.675l-3.7-4.25c-0.366-0.417-0.533-0.9-0.5-1.45c0.035-0.55,0.26-1.008,0.675-1.375
			c0.416-0.367,0.899-0.533,1.45-0.5C190.574,317.386,191.033,317.611,191.4,318.025z M203.75,320.825
			c0.431-0.36,0.922-0.519,1.475-0.476c0.545,0.055,0.996,0.296,1.35,0.726c0.36,0.421,0.518,0.903,0.475,1.45
			c-0.047,0.545-0.28,0.995-0.7,1.35l-3.85,3.35c-0.431,0.36-0.922,0.519-1.475,0.476c-0.545-0.054-0.996-0.296-1.35-0.726
			c-0.36-0.42-0.518-0.903-0.475-1.449c0.047-0.546,0.28-0.996,0.7-1.351L203.75,320.825z M160.225,268.475h0.025
			c-1.678-1.65-3.695-2.475-6.05-2.475c-2.328,0-4.345,0.824-6.05,2.475h0.025c-1.676,1.669-2.518,3.66-2.525,5.976
			c0.003,2.376,0.845,4.401,2.525,6.075h-0.025c1.706,1.65,3.722,2.475,6.05,2.475c2.354,0,4.372-0.824,6.05-2.475h-0.025
			c1.68-1.674,2.522-3.699,2.525-6.075C162.743,272.135,161.901,270.144,160.225,268.475z M163.05,265.625h0.025
			c2.457,2.465,3.682,5.406,3.675,8.825c0.003,3.489-1.222,6.465-3.675,8.925h-0.025c-2.455,2.416-5.405,3.625-8.85,3.625
			c-3.406,0-6.356-1.209-8.85-3.625h-0.025c-2.453-2.46-3.678-5.436-3.675-8.925c-0.007-3.419,1.218-6.36,3.675-8.825h0.025
			c2.494-2.416,5.444-3.625,8.85-3.625C157.645,262,160.595,263.209,163.05,265.625z M182.775,157.425
			c0.394-0.387,0.869-0.579,1.425-0.575c0.556-0.004,1.031,0.188,1.425,0.575c0.387,0.394,0.579,0.869,0.575,1.425v7.9h7.9
			c0.556-0.004,1.031,0.188,1.425,0.575c0.387,0.394,0.579,0.869,0.575,1.425c0.003,0.556-0.188,1.031-0.575,1.425
			c-0.394,0.387-0.869,0.579-1.425,0.575h-7.9v7.9c0.003,0.556-0.188,1.031-0.575,1.425c-0.394,0.387-0.869,0.578-1.425,0.575
			c-0.556,0.003-1.031-0.188-1.425-0.575c-0.387-0.395-0.579-0.869-0.575-1.425v-7.9h-7.85c-0.556,0.003-1.031-0.188-1.425-0.575
			c-0.387-0.394-0.579-0.869-0.575-1.425c-0.004-0.556,0.188-1.031,0.575-1.425c0.394-0.387,0.869-0.579,1.425-0.575h7.85v-7.9
			C182.196,158.294,182.388,157.819,182.775,157.425z M25.575,345.525c-0.517,0.186-1.025,0.16-1.525-0.075
			c-0.498-0.235-0.84-0.61-1.025-1.125c-0.187-0.519-0.162-1.026,0.075-1.525c0.234-0.497,0.609-0.839,1.125-1.024
			c2.558-0.909,5.149-1.784,7.775-2.625c0.515-0.17,1.015-0.128,1.5,0.125c0.494,0.248,0.828,0.631,1,1.149
			c0.169,0.524,0.128,1.032-0.125,1.525c-0.255,0.493-0.647,0.827-1.175,1C30.625,343.775,28.083,344.634,25.575,345.525z
			 M79.6,328.475c-0.476-0.272-0.785-0.673-0.925-1.199c-0.144-0.535-0.077-1.044,0.2-1.525c0.273-0.477,0.673-0.784,1.2-0.925
			c48.893-13.057,101.726-22.89,158.5-29.5c0.548-0.07,1.04,0.063,1.475,0.399c0.427,0.35,0.668,0.799,0.725,1.351
			c0.07,0.548-0.063,1.04-0.4,1.475c-0.349,0.427-0.799,0.668-1.35,0.726c-56.56,6.59-109.193,16.389-157.9,29.399
			C80.589,328.818,80.081,328.752,79.6,328.475z M64.475,329.8c0.482,0.271,0.799,0.671,0.95,1.2
			c0.152,0.531,0.094,1.04-0.175,1.525c-0.27,0.481-0.67,0.798-1.2,0.949c-6.908,1.959-13.767,4.034-20.575,6.226
			c-0.524,0.169-1.032,0.128-1.525-0.125c-0.495-0.248-0.828-0.632-1-1.15c-0.17-0.524-0.128-1.032,0.125-1.524
			c0.247-0.494,0.631-0.828,1.15-1c6.858-2.209,13.767-4.301,20.725-6.275C63.481,329.473,63.989,329.531,64.475,329.8z
			 M74.45,289.675c0.394,0.385,0.594,0.852,0.6,1.4c0.005,0.55-0.187,1.024-0.575,1.425l-3.75,3.75
			c-0.384,0.393-0.851,0.593-1.4,0.6c-0.552,0.006-1.027-0.186-1.425-0.574c-0.395-0.385-0.594-0.852-0.6-1.4
			c-0.005-0.551,0.187-1.025,0.575-1.425l3.75-3.75c0.384-0.394,0.851-0.593,1.4-0.601C73.577,289.095,74.052,289.287,74.45,289.675
			z M84.65,277.45c0.551-0.015,1.026,0.169,1.425,0.55c0.402,0.383,0.61,0.85,0.625,1.4c0.014,0.557-0.17,1.04-0.55,1.449
			L83.3,283.7c-0.383,0.392-0.85,0.593-1.4,0.6c-0.551,0.015-1.026-0.169-1.425-0.55c-0.402-0.383-0.611-0.85-0.625-1.4
			c-0.014-0.557,0.169-1.041,0.55-1.449l2.85-2.851C83.633,277.658,84.1,277.457,84.65,277.45z M67.35,279.5
			c-0.379-0.398-0.563-0.873-0.55-1.425c0.006-0.55,0.206-1.017,0.6-1.4c0.398-0.388,0.874-0.58,1.425-0.575
			c0.556,0.006,1.031,0.206,1.425,0.601l2.9,2.95c0.379,0.398,0.563,0.873,0.55,1.425c-0.006,0.549-0.206,1.016-0.6,1.399
			c-0.399,0.389-0.874,0.58-1.425,0.575c-0.556-0.006-1.031-0.206-1.425-0.6L67.35,279.5z M88.25,295.55
			c0.003,0.556-0.188,1.031-0.575,1.425c-0.394,0.387-0.869,0.579-1.425,0.575c-0.556,0.004-1.031-0.188-1.425-0.575l-3.7-3.649
			c-0.387-0.395-0.579-0.869-0.575-1.425c-0.003-0.557,0.188-1.031,0.575-1.426c0.394-0.387,0.869-0.578,1.425-0.574
			c0.556-0.004,1.031,0.188,1.425,0.574l3.7,3.65C88.062,294.52,88.253,294.994,88.25,295.55z M116.525,207.025
			c0.394-0.388,0.869-0.579,1.425-0.575c0.556-0.004,1.031,0.188,1.425,0.575c0.387,0.394,0.579,0.869,0.575,1.425v10.399h10.3
			c0.556-0.004,1.031,0.188,1.425,0.575c0.387,0.394,0.579,0.869,0.575,1.425c0.003,0.557-0.188,1.031-0.575,1.426
			c-0.394,0.387-0.869,0.578-1.425,0.574h-10.3V233.2c0.003,0.556-0.188,1.03-0.575,1.425c-0.394,0.387-0.869,0.578-1.425,0.575
			c-0.556,0.003-1.031-0.188-1.425-0.575c-0.387-0.395-0.579-0.869-0.575-1.425V222.85H105.6c-0.556,0.004-1.031-0.188-1.425-0.574
			c-0.387-0.395-0.579-0.869-0.575-1.426c-0.004-0.556,0.188-1.031,0.575-1.425c0.394-0.387,0.869-0.579,1.425-0.575h10.35V208.45
			C115.946,207.895,116.138,207.419,116.525,207.025z M218.4,62.6c-0.733-0.4-1.216-1-1.45-1.8L216.5,59c-0.2-0.8-0.1-1.55,0.3-2.25
			c0.4-0.733,1-1.217,1.8-1.45c0.8-0.2,1.566-0.1,2.3,0.3c0.7,0.4,1.167,1,1.4,1.8l0.45,1.8c0.2,0.8,0.1,1.566-0.3,2.3
			c-0.4,0.7-1,1.167-1.8,1.4C219.85,63.1,219.1,63,218.4,62.6z M176.1,31.95h0.05c7.867-7.934,18.35-13.65,31.45-17.15
			c13.133-3.533,25.017-3.816,35.65-0.85c11.6,3.1,18.45,8.917,20.55,17.45c2.367,8.367-0.65,16.8-9.05,25.3
			c-0.033,0-0.05,0.017-0.05,0.05c-0.534,0.5-1.083,1.017-1.65,1.55l3.5,12.85c0.2,0.733,0.133,1.45-0.2,2.15
			c-0.367,0.7-0.9,1.184-1.6,1.45s-1.417,0.283-2.15,0.05L236.9,69c-6.5,2.533-10.983,4.133-13.45,4.8
			c-13.1,3.5-25.05,3.784-35.85,0.85h-0.05c-11.433-3.167-18.2-8.95-20.3-17.35C164.816,48.867,167.767,40.417,176.1,31.95z
			 M180.4,36.15v0.05c-6.467,6.566-8.917,13.083-7.35,19.55c1.833,6.3,7.2,10.667,16.1,13.1c9.867,2.6,20.784,2.316,32.75-0.85
			h-0.05c2.467-0.7,7.1-2.383,13.9-5.05c0.733-0.267,1.45-0.267,2.15,0l11.3,4.15l-2.45-9c-0.167-0.567-0.15-1.117,0.05-1.65
			c0.167-0.567,0.467-1.034,0.9-1.4c0.966-0.866,1.9-1.716,2.8-2.55c0-0.033,0.017-0.05,0.05-0.05c6.5-6.6,8.983-13.1,7.45-19.5
			c-1.833-6.367-7.267-10.767-16.3-13.2h-0.05c-9.7-2.633-20.533-2.35-32.5,0.85C197.217,23.767,187.633,28.95,180.4,36.15z
			 M203.7,31.7c0.033-0.034,0.066-0.067,0.1-0.1c1.634-2.8,3.983-4.6,7.05-5.4c3.033-0.8,5.9-0.417,8.6,1.15
			c0.033,0.033,0.066,0.066,0.1,0.1c2.8,1.533,4.6,3.833,5.4,6.9V34.3c0.833,3.1,0.433,6.034-1.2,8.8
			c-0.033,0.033-0.066,0.083-0.1,0.15c-0.966,1.667-2.233,2.983-3.8,3.95l0.05-0.05c-0.1,0.067-0.2,0.133-0.3,0.2l0.8,3.15
			c0.2,0.8,0.1,1.55-0.3,2.25c-0.434,0.733-1.05,1.2-1.85,1.4c-0.8,0.2-1.55,0.1-2.25-0.3c-0.733-0.434-1.2-1.034-1.4-1.8l-1.5-5.7
			c-0.133-0.534-0.133-1.067,0-1.6c0.167-0.533,0.45-0.983,0.85-1.35c0.367-0.4,0.816-0.65,1.35-0.75
			c0.5-0.133,0.983-0.333,1.45-0.6c0.7-0.466,1.283-1.083,1.75-1.85c0-0.034,0.017-0.067,0.05-0.1c0.8-1.333,1-2.733,0.6-4.2
			c-0.4-1.433-1.25-2.517-2.55-3.25c-0.067-0.033-0.117-0.05-0.15-0.05c-1.267-0.8-2.617-1-4.05-0.6c-1.466,0.4-2.6,1.233-3.4,2.5
			c-0.667,1.267-0.833,2.633-0.5,4.1c0.167,0.5,0.3,0.966,0.4,1.4c0.167,0.8,0.017,1.55-0.45,2.25c-0.467,0.7-1.1,1.133-1.9,1.3
			c-0.8,0.167-1.55,0.017-2.25-0.45c-0.7-0.467-1.133-1.1-1.3-1.9c-0.033-0.2-0.083-0.4-0.15-0.6c-0.033-0.1-0.067-0.2-0.1-0.3
			C201.95,37.233,202.267,34.367,203.7,31.7z" fill="#9BA8D5" clip-rule="evenodd" fill-rule="evenodd"></path>
	</g>
	<g>
		<linearGradient y2="95.6006" x2="416.9009" y1="316.1426" x1="416.9009" gradientUnits="userSpaceOnUse" id="SVGID_1_">
			<stop style="stop-color:#478CCB" offset="0"></stop>
			<stop style="stop-color:#6AABDE" offset="1"></stop>
		</linearGradient>
		<path d="M468.2,269.7v0.05c-0.634,7.566-3.417,14.45-8.351,20.65
			c-0.5,0.633-1.166,1-2,1.1c-0.833,0.066-1.566-0.15-2.199-0.65c-0.667-0.5-1.033-1.166-1.101-2
			c-0.1-0.833,0.101-1.566,0.601-2.199c4.133-5.234,6.482-11.033,7.05-17.4c0.066-1,0.1-2.017,0.1-3.05c0-0.833,0.3-1.534,0.9-2.101
			c0.566-0.6,1.267-0.899,2.1-0.899s1.55,0.3,2.15,0.899c0.566,0.566,0.85,1.268,0.85,2.101
			C468.3,267.367,468.267,268.533,468.2,269.7z M605.875,271.55c0.828,0.048,1.52,0.382,2.075,1c0.55,0.622,0.8,1.347,0.75,2.175
			c-0.071,1.191-0.196,2.384-0.375,3.575c-1.152,7.49-4.386,14.165-9.7,20.025c-0.559,0.609-1.25,0.935-2.075,0.975
			c-0.821,0.041-1.538-0.218-2.149-0.774c-0.621-0.559-0.954-1.25-1-2.075c-0.041-0.827,0.217-1.553,0.774-2.175
			c4.485-4.94,7.219-10.565,8.2-16.875c0.154-1.009,0.263-2.018,0.325-3.025c0.048-0.826,0.382-1.519,1-2.075
			C604.323,271.75,605.049,271.5,605.875,271.55z M555.55,144.725v0.025l-8.8,125.7v0.05c-0.068,0.766,0.006,1.5,0.225,2.2v0.024
			c0.291,0.898,0.8,1.74,1.525,2.525c1.909,1.681,4.226,2.614,6.95,2.8c2.692,0.183,5.075-0.401,7.149-1.75
			c0.805-0.684,1.438-1.45,1.9-2.3c0.301-0.708,0.483-1.475,0.55-2.3l8.8-125.65c0.096-1.865-0.537-3.507-1.899-4.925l-0.05-0.025
			c-1.793-1.923-4.01-2.973-6.65-3.15c-2.668-0.185-5.051,0.548-7.15,2.2l-0.024,0.025
			C556.521,141.37,555.68,142.887,555.55,144.725z M533.425,116.225H533.4c-9.555,6.886-14.705,15.511-15.45,25.875l-8.8,125.675
			c-0.064,1.024-0.098,2.049-0.101,3.074v0.051c0.11,6.387,2.052,12.32,5.825,17.8c1.662,2.421,3.654,4.778,5.975,7.075l-0.05-0.075
			c0.946,0.886,1.938,1.711,2.976,2.475c0.021,0.019,0.047,0.035,0.074,0.05c8.181,6.357,17.997,9.949,29.45,10.775h0.025
			c11.451,0.787,21.659-1.396,30.625-6.55c0.718-0.414,1.477-0.515,2.274-0.3c0.799,0.215,1.408,0.682,1.825,1.399
			c0.415,0.719,0.516,1.477,0.3,2.275c-0.215,0.797-0.682,1.405-1.399,1.825c-9.962,5.775-21.312,8.226-34.05,7.35h-0.025
			c-12.736-0.912-23.645-4.92-32.725-12.025c-1.201-0.89-2.352-1.848-3.45-2.875c-0.015-0.027-0.032-0.053-0.05-0.074
			c-2.613-2.571-4.855-5.213-6.726-7.926c-4.483-6.506-6.774-13.557-6.875-21.149v-0.05c-0.001-1.158,0.032-2.317,0.101-3.476V267.4
			l8.8-125.7c0.787-12.169,6.771-22.278,17.95-30.325h-0.025c10.938-7.986,23.596-11.478,37.975-10.475
			c14.382,0.986,26.406,6.194,36.075,15.625l0.025,0.025c9.899,9.516,14.416,20.349,13.55,32.5l-8.05,114.8
			c-0.067,0.833-0.417,1.525-1.05,2.075c-0.627,0.543-1.353,0.785-2.176,0.726c-0.822-0.066-1.506-0.416-2.05-1.051
			c-0.542-0.619-0.784-1.336-0.725-2.149l8.05-114.8c0.666-10.371-3.242-19.629-11.725-27.775l-0.025-0.025
			c-8.66-8.42-19.428-13.07-32.3-13.95C554.563,105.969,543.222,109.078,533.425,116.225z M554.4,135.45l0.024-0.025
			c3.296-2.598,7.038-3.756,11.226-3.475c4.226,0.29,7.775,1.973,10.649,5.05l-0.05-0.025c2.631,2.708,3.832,5.859,3.6,9.45v0.025
			l-8.8,125.7v0.05c-0.134,1.507-0.483,2.907-1.05,4.2c-0.023,0.045-0.049,0.094-0.075,0.149c-0.839,1.702-2.064,3.21-3.675,4.525
			c-0.073,0.058-0.148,0.116-0.225,0.175c-3.174,2.148-6.832,3.082-10.976,2.8c-4.143-0.28-7.659-1.714-10.55-4.3
			c-0.048-0.049-0.098-0.099-0.15-0.15c-1.526-1.573-2.568-3.281-3.125-5.125v0.025c-0.442-1.418-0.602-2.901-0.475-4.45l8.8-125.7
			C549.761,140.744,551.377,137.777,554.4,135.45z M330.05,271.85c0.514,0.648,0.722,1.383,0.625,2.2
			c-0.157,1.384-0.282,2.784-0.375,4.2c-0.018,0.178-0.051,0.352-0.1,0.525c-1.52,6.066-3.912,11.458-7.175,16.175
			c-0.472,0.681-1.114,1.098-1.925,1.25c-0.815,0.152-1.565-0.006-2.25-0.476c-0.683-0.472-1.1-1.113-1.25-1.925
			c-0.152-0.813,0.006-1.563,0.475-2.25c2.809-4.063,4.892-8.695,6.25-13.899c0.098-1.445,0.231-2.879,0.4-4.301
			c0.098-0.818,0.473-1.485,1.125-2c0.648-0.514,1.382-0.723,2.2-0.625C328.869,270.822,329.536,271.197,330.05,271.85z
			 M311.375,102c0.627,0.544,0.969,1.227,1.025,2.05l2.25,32.75c0.05,0.824-0.2,1.549-0.75,2.175
			c-0.545,0.625-1.229,0.967-2.05,1.025l-50.625,3.55l2.075,29.1l38.5-2.7c6.377-0.456,11.636,0.994,15.775,4.35
			c4.779,3.422,7.338,7.905,7.675,13.45l5,71.5c0.059,0.813-0.183,1.529-0.725,2.15c-0.543,0.633-1.227,0.983-2.05,1.05
			c-0.823,0.06-1.548-0.183-2.175-0.726c-0.633-0.55-0.983-1.242-1.05-2.074l-5-71.5c-0.259-3.732-2.018-6.749-5.275-9.05
			c-0.049-0.035-0.099-0.068-0.15-0.1c-3.056-2.374-6.922-3.39-11.6-3.05H302.2l-41.5,2.9c-0.813,0.059-1.53-0.183-2.15-0.725
			c-0.633-0.543-0.983-1.226-1.05-2.05l-2.5-35.1c-0.054-0.83,0.196-1.563,0.75-2.2c0.545-0.629,1.229-0.971,2.05-1.025l50.65-3.55
			l-1.85-26.75l-69.15,4.85c-4.66,0.311-8.368,1.886-11.125,4.725c-0.043,0.033-0.085,0.066-0.125,0.1
			c-2.886,2.729-4.202,5.962-3.95,9.7v0.025l4.7,67.8c0.288,3.383,2.046,6.199,5.275,8.449c0.039,0.025,0.081,0.051,0.125,0.075
			c3.097,2.36,6.98,3.386,11.65,3.075l41.5-2.9c0.813-0.059,1.53,0.184,2.15,0.726c0.633,0.55,0.983,1.242,1.05,2.075l4.5,63.699
			c0.033,0.524-0.067,1.024-0.3,1.5c-0.153,0.406-0.203,0.889-0.15,1.45c0.021,0.242,0.013,0.483-0.025,0.726
			c-0.259,1.613-0.734,3.055-1.425,4.324c-0.034,0.067-0.067,0.134-0.1,0.2c-0.473,0.755-1.039,1.438-1.7,2.05
			c-1.487,1.729-4.562,2.762-9.225,3.101c-1.762,0.134-3.287,0.233-4.575,0.3c-0.198,0.013-0.398,0.004-0.6-0.025
			c-2.3-0.358-4.083-1.025-5.35-2c-0.092-0.07-0.184-0.145-0.275-0.225c-0.63-0.561-1.18-1.252-1.65-2.075l0.025,0.025
			c-0.481-0.839-0.939-1.896-1.375-3.175c-0.1-0.28-0.158-0.563-0.175-0.851c-0.02-0.284-0.111-0.56-0.275-0.825
			c-0.292-0.453-0.451-0.945-0.475-1.475c-0.034-0.732-0.067-1.266-0.1-1.6c-0.061-0.692,0.089-1.317,0.45-1.875l-2.6-37.351
			l-32.3,2.3l2.55,36.7c0.067,0.767,0.134,1.55,0.2,2.351c0,0.045,0,0.086,0,0.125c0.035,0.733,0.102,1.658,0.2,2.774v0.025
			c0.087,1.14,0.262,2.265,0.525,3.375c0.009,0.054,0.018,0.104,0.025,0.149c0.225,1.223,0.592,2.432,1.1,3.625
			c0.047,0.104,0.089,0.203,0.125,0.301c1.498,4.98,3.956,9.305,7.375,12.975c0.015,0.027,0.032,0.053,0.05,0.075
			c1.082,1.223,2.299,2.356,3.65,3.399v0.025c2.202,1.73,4.577,3.289,7.125,4.675L253.9,304.9c1.933,1.031,3.974,1.923,6.125,2.675
			h0.025c6.188,2.155,13.304,2.946,21.35,2.375c0.067-0.003,0.134-0.003,0.2,0l0.7-0.05h-0.2c7.6-0.534,14.35-2.293,20.25-5.275
			c0.027-0.016,0.052-0.032,0.075-0.05c2.257-1.059,4.357-2.241,6.3-3.55c0.689-0.469,1.439-0.627,2.25-0.476
			c0.806,0.16,1.439,0.585,1.9,1.275c0.47,0.688,0.628,1.438,0.475,2.25c-0.162,0.804-0.586,1.438-1.275,1.899
			c-2.19,1.492-4.557,2.842-7.1,4.051l0.075-0.051c-6.567,3.352-14.083,5.326-22.55,5.926c-0.067,0.002-0.134,0.002-0.2,0l-0.7,0.05
			h0.2c-8.954,0.628-16.87-0.28-23.75-2.726h0.025c-2.45-0.848-4.774-1.856-6.975-3.024l-0.025-0.025
			c-2.852-1.548-5.511-3.29-7.975-5.225v0.024c-1.649-1.289-3.132-2.689-4.45-4.199l0.05,0.074
			c-4.048-4.33-6.957-9.438-8.725-15.324c-0.608-1.46-1.058-2.936-1.35-4.426c-0.337-1.422-0.562-2.864-0.675-4.324
			c-0.097-1.145-0.164-2.103-0.2-2.875c-0.067-0.801-0.133-1.584-0.2-2.351v-0.05l-2.75-39.75c-0.059-0.813,0.183-1.529,0.725-2.15
			c0.551-0.633,1.243-0.982,2.075-1.05l38.3-2.7c0.821-0.054,1.546,0.196,2.175,0.75c0.629,0.547,0.97,1.229,1.025,2.051l2.8,40.35
			c0.091,1.096-0.034,2.028-0.375,2.8c-0.012,0.026-0.02,0.052-0.025,0.075c0.005,0.026,0.013,0.051,0.025,0.075
			c0.41,0.819,0.66,1.661,0.75,2.524c0.249,0.679,0.507,1.254,0.775,1.726l0.025,0.024c0.099,0.186,0.207,0.353,0.325,0.5
			c0.599,0.341,1.374,0.591,2.325,0.75c1.177-0.062,2.543-0.153,4.1-0.274h0.025c2.705-0.187,4.505-0.628,5.4-1.325
			c0.05-0.059,0.1-0.116,0.15-0.175c0.272-0.255,0.505-0.538,0.7-0.851c0.281-0.595,0.489-1.253,0.625-1.975
			c-0.062-1.234,0.08-2.343,0.425-3.325l-4.225-60l-38.525,2.7c-6.33,0.423-11.58-1.02-15.75-4.325l0.125,0.075
			c-4.905-3.417-7.513-7.734-7.825-12.95l-4.7-67.8c-0.408-5.585,1.542-10.41,5.85-14.475l-0.125,0.1
			c3.709-3.961,8.734-6.153,15.075-6.575l72.15-5.05C310.026,101.197,310.751,101.447,311.375,102z M415.4,101.6
			c-12.933,0-24.033,3.883-33.3,11.65c-9.033,7.566-13.567,16.55-13.6,26.95v126c0,1,0.05,2.017,0.15,3.05
			c0.533,6.367,2.867,12.166,7,17.4c1.833,2.266,3.967,4.434,6.4,6.5c1.034,0.833,2.1,1.616,3.2,2.35l0.05,0.05
			c8.567,5.8,18.6,8.684,30.1,8.65c11.5,0,21.55-2.884,30.15-8.65c0.667-0.5,1.417-0.667,2.25-0.5c0.8,0.167,1.434,0.601,1.9,1.3
			c0.466,0.667,0.616,1.417,0.45,2.25c-0.167,0.801-0.584,1.434-1.25,1.9c-9.566,6.467-20.734,9.7-33.5,9.7
			c-12.767-0.034-23.917-3.267-33.45-9.7c-1.233-0.8-2.45-1.684-3.65-2.65c-0.033-0.033-0.066-0.05-0.1-0.05
			c-2.8-2.366-5.217-4.833-7.25-7.399c-4.934-6.2-7.7-13.084-8.3-20.65c-0.1-1.166-0.15-2.35-0.15-3.55v-126
			c-0.033-12.2,5.217-22.717,15.75-31.55C388.617,99.95,401,95.6,415.4,95.6s26.766,4.35,37.1,13.05
			c10.566,8.833,15.834,19.35,15.8,31.55v115.05c0,0.834-0.283,1.55-0.85,2.15c-0.601,0.566-1.317,0.85-2.15,0.85
			s-1.533-0.283-2.1-0.85c-0.601-0.601-0.9-1.316-0.9-2.15V140.2c-0.033-10.4-4.583-19.384-13.649-26.95
			C439.416,105.483,428.334,101.6,415.4,101.6z M399.65,144.6c0-4.167,1.55-7.733,4.65-10.7v-0.05c3.067-2.867,6.75-4.3,11.05-4.3
			h0.05c4.3,0,7.967,1.45,11,4.35h0.05c3.1,2.967,4.649,6.534,4.649,10.7v116.65c0,4.2-1.55,7.767-4.649,10.7h-0.05
			c-3.034,2.899-6.7,4.35-11,4.35h-0.05c-4.3,0-7.983-1.45-11.05-4.35c-3.1-2.934-4.65-6.5-4.65-10.7V144.6z M408.45,138.25h-0.05
			c-1.833,1.767-2.75,3.883-2.75,6.35v116.65c0,2.467,0.917,4.584,2.75,6.35h0.05c1.9,1.801,4.2,2.7,6.9,2.7h0.05
			c2.7,0,5-0.899,6.9-2.7v-0.05c1.867-1.733,2.8-3.833,2.8-6.3V144.6c0-2.467-0.934-4.583-2.8-6.35c-1.9-1.8-4.2-2.7-6.9-2.7h-0.05
			C412.65,135.55,410.35,136.45,408.45,138.25z" fill="url(#SVGID_1_)" clip-rule="evenodd" fill-rule="evenodd"></path>
	</g>
</g>
</svg>
